<svg xmlns="http://www.w3.org/2000/svg" xmlns:xlink="http://www.w3.org/1999/xlink" width="512" height="512" x="0" y="0" viewBox="0 0 511.998 511.998" style="enable-background:new 0 0 512 512" xml:space="preserve" class=""><g><linearGradient id="a" x1="255.999" x2="255.999" y1="511.998" y2="0" gradientUnits="userSpaceOnUse"><stop stop-opacity="1" stop-color="#00c0ff" offset="0"></stop><stop stop-opacity="1" stop-color="#f455ff" offset="0.8359073359073359"></stop></linearGradient><linearGradient id="b" x1="255.998" x2="255.998" y1="346" y2="166" gradientUnits="userSpaceOnUse"><stop offset="0" stop-color="#addcff"></stop><stop offset=".503" stop-color="#eaf6ff"></stop><stop offset="1" stop-color="#eaf6ff"></stop></linearGradient><path fill="url(#a)" d="M255.998 0C115.388 0 0 115.39 0 256c0 48.94 14.797 96.182 40.988 137.153L1.073 491.431a14.99 14.99 0 0 0 3.325 16.172 15.004 15.004 0 0 0 16.172 3.325l98.275-39.918c40.972 26.191 88.213 40.988 137.153 40.988 140.61 0 256-115.387 256-255.997S396.608 0 255.998 0z" opacity="1" data-original="url(#a)" class=""></path><path fill="url(#b)" d="M418.361 187.519a14.927 14.927 0 0 0-17.637-5.566l-110.947 41.616-53.174-53.174c-2.915-2.915-7.017-4.189-11.045-4.395a15.02 15.02 0 0 0-10.767 5.039l-120 135a14.967 14.967 0 0 0-1.157 18.442c3.882 5.684 11.118 7.954 17.637 5.566l110.947-41.616 53.174 53.174A15.014 15.014 0 0 0 285.997 346h.439a15.02 15.02 0 0 0 10.767-5.039l120-135a14.965 14.965 0 0 0 1.158-18.442z" opacity="1" data-original="url(#b)" class=""></path></g></svg>