<svg id="Layer_1" enable-background="new 0 0 24 24" height="512" viewBox="0 0 24 24" width="512" xmlns="http://www.w3.org/2000/svg" xmlns:xlink="http://www.w3.org/1999/xlink"><linearGradient id="SVGID_1_" gradientTransform="matrix(1 0 0 -1 0 26)" gradientUnits="userSpaceOnUse" x1="12" x2="12" y1="26" y2="2"><stop offset="0" stop-color="#f7b733"/><stop offset="1" stop-color="#fc4a1a"/></linearGradient><switch><g><circle cx="12" cy="12" fill="url(#SVGID_1_)" r="12"/><path d="m12 14.4-2.7 2.7c-.7.7-1.8.7-2.5 0s-.7-1.8 0-2.5l2.8-2.6c.3-.3.3-.7 0-1s-.7-.3-1 0l-2.7 2.7c-1.3 1.3-1.2 3.3.1 4.5 1.2 1.1 3.1 1.1 4.3 0l2.7-2.7c.3-.3.3-.7 0-1-.2-.3-.7-.3-1-.1zm6.1-8.5c-1.2-1.2-3.2-1.2-4.5 0l-2.7 2.7c-.3.3-.3.7 0 1s.7.3 1 0l2.7-2.7c.7-.7 1.8-.7 2.5 0s.7 1.8 0 2.5l-2.7 2.7c-.3.3-.3.7 0 1 .3.3.7.3 1 0l2.7-2.7c1.2-1.3 1.2-3.2 0-4.5zm-8.4 8.4c.1.1.3.2.5.2s.4-.1.5-.2l3.5-3.5c.3-.3.3-.7 0-1s-.7-.3-1 0l-3.5 3.5c-.3.3-.3.7 0 1z" fill="#fff"/></g></switch></svg>