<?xml version="1.0" encoding="UTF-8"?>
<svg xmlns="http://www.w3.org/2000/svg" version="1.1" viewBox="0 0 112.2 112.2">
  <!-- Generator: Adobe Illustrator 28.7.1, SVG Export Plug-In . SVG Version: 1.2.0 Build 142)  -->
  <g>
    <g id="Capa_1">
      <path d="M56.1,0C25.1,0,0,25.1,0,56.1s25.1,56.1,56.1,56.1,56.1-25.1,56.1-56.1S87.1,0,56.1,0ZM41.3,83.7h-13.4v-40.3h13.4v40.3ZM34.6,37.9h0c-4.5,0-7.4-3.1-7.4-7s3-7,7.6-7,7.4,3,7.5,7c0,3.9-2.9,7-7.6,7ZM89.6,83.7h-13.4v-21.6c0-5.4-1.9-9.1-6.8-9.1s-5.9,2.5-6.9,4.9c-.3.9-.4,2-.4,3.3v22.5h-13.4s.2-36.5,0-40.3h13.4v5.7c1.8-2.7,5-6.7,12.1-6.7s15.4,5.8,15.4,18.2v23.1ZM62.1,49.3h0c0,0,0,0,0,0h0Z"/>
    </g>
  </g>
</svg>