<?xml version="1.0" encoding="UTF-8"?>
<svg xmlns="http://www.w3.org/2000/svg" version="1.1" viewBox="0 0 512 512">
  <!-- Generator: Adobe Illustrator 28.7.1, SVG Export Plug-In . SVG Version: 1.2.0 Build 142)  -->
  <g>
    <g id="Camada_1">
      <g>
        <path d="M384,0h-256C57.6,0,0,57.6,0,128v256c0,70.4,57.6,128,128,128h256c70.4,0,128-57.6,128-128V128C512,57.6,454.4,0,384,0h0ZM469.3,384c0,47-38.3,85.3-85.3,85.3h-256c-47,0-85.3-38.3-85.3-85.3V128c0-47.1,38.3-85.3,85.3-85.3h256c47.1,0,85.3,38.3,85.3,85.3v256Z"/>
        <circle cx="394.7" cy="117.3" r="32"/>
        <path d="M256,128c-70.7,0-128,57.3-128,128s57.3,128,128,128,128-57.3,128-128-57.3-128-128-128h0ZM256,341.3c-47.1,0-85.3-38.2-85.3-85.3s38.2-85.3,85.3-85.3,85.3,38.2,85.3,85.3-38.2,85.3-85.3,85.3h0Z"/>
      </g>
    </g>
  </g>
</svg>