<?xml version="1.0" encoding="UTF-8"?>
<svg xmlns="http://www.w3.org/2000/svg" version="1.1" viewBox="0 0 512 512">
  <defs>
    <style>
      .cls-1 {
        fill-rule: evenodd;
      }
    </style>
  </defs>
  <!-- Generator: Adobe Illustrator 28.7.1, SVG Export Plug-In . SVG Version: 1.2.0 Build 142)  -->
  <g>
    <g id="Camada_1">
      <path class="cls-1" d="M255.2,7.8c46.2.5,87.8,11.9,125.1,34,36.8,21.7,67.4,52.5,88.9,89.4,22,37.5,33.3,79.4,33.8,125.8-1.3,63.5-21.3,117.8-60.1,162.8-38.8,45-88.4,72.8-139.8,83.5v-178.1h48.6l11-70h-73.6v-45.8c-.4-9.5,2.6-18.8,8.5-26.3,5.9-7.5,16.2-11.4,31.1-11.8h44.4v-61.3c-.6-.2-6.7-1-18.1-2.4-13-1.5-26.1-2.3-39.2-2.4-29.6.1-53,8.5-70.3,25.1-17.2,16.6-26,40.5-26.4,71.9v53.2h-56v70h56v178.1c-63.1-10.7-112.8-38.5-151.5-83.5S8.7,320.6,7.4,257.1c.5-46.4,11.8-88.4,33.8-125.8,21.5-36.9,52.1-67.7,88.9-89.4C167.3,19.6,209,8.3,255.2,7.8h0Z"/>
    </g>
  </g>
</svg>