<?xml version="1.0" encoding="UTF-8"?>
<svg id="Camada_1" xmlns="http://www.w3.org/2000/svg" xmlns:xlink="http://www.w3.org/1999/xlink" viewBox="0 0 497.22 497.22">
  <defs>
    <style>
      .cls-1 {
        fill: url(#Gradiente_sem_nome_145);
      }

      .cls-2, .cls-3 {
        fill: #fff;
      }

      .cls-4 {
        fill: url(#Gradiente_sem_nome_135);
      }

      .cls-5 {
        stroke-width: 2px;
      }

      .cls-5, .cls-3, .cls-6 {
        stroke: #000;
        stroke-miterlimit: 10;
      }

      .cls-3, .cls-6 {
        stroke-width: 4px;
      }

      .cls-6 {
        fill: #ff6700;
      }

      .cls-7 {
        fill: #fffe00;
      }

      .cls-8 {
        fill: #050300;
      }

      .cls-9 {
        fill: #da251c;
      }

      .cls-10 {
        fill: url(#Gradiente_sem_nome_80);
      }

      .cls-11 {
        fill: #012169;
      }

      .cls-12 {
        fill: #009739;
      }

      .cls-13 {
        fill: #040200;
      }

      .cls-14 {
        fill: #3e3272;
      }

      .cls-15 {
        fill: #f8a71a;
      }

      .cls-16 {
        fill: #fedd00;
      }
    </style>
    <linearGradient id="Gradiente_sem_nome_145" data-name="Gradiente sem nome 145" x1="145.75" y1="343.31" x2="252.68" y2="337.12" gradientTransform="translate(-39.5 35.95) rotate(-7.96) scale(1.07 1)" gradientUnits="userSpaceOnUse">
      <stop offset=".65" stop-color="#000"/>
      <stop offset=".73" stop-color="#040505" stop-opacity=".95"/>
      <stop offset=".81" stop-color="#101517" stop-opacity=".8"/>
      <stop offset=".85" stop-color="#192123" stop-opacity=".7"/>
      <stop offset=".9" stop-color="#0e1314" stop-opacity=".78"/>
      <stop offset="1" stop-color="#000" stop-opacity=".9"/>
    </linearGradient>
    <linearGradient id="Gradiente_sem_nome_80" data-name="Gradiente sem nome 80" x1="349.25" y1="318.65" x2="226.56" y2="363.3" gradientTransform="translate(-21.11 33.38) rotate(-7.96)" gradientUnits="userSpaceOnUse">
      <stop offset="0" stop-color="#009739" stop-opacity="0"/>
      <stop offset=".6" stop-color="#009739" stop-opacity="0"/>
      <stop offset=".69" stop-color="#009739" stop-opacity="0"/>
      <stop offset=".7" stop-color="#009036" stop-opacity=".05"/>
      <stop offset=".8" stop-color="#006023" stop-opacity=".45"/>
      <stop offset=".85" stop-color="#004f1c" stop-opacity=".6"/>
      <stop offset=".9" stop-color="#002f10" stop-opacity=".6"/>
      <stop offset=".96" stop-color="#000c04" stop-opacity=".6"/>
      <stop offset="1" stop-color="#000" stop-opacity=".6"/>
    </linearGradient>
    <linearGradient id="Gradiente_sem_nome_135" data-name="Gradiente sem nome 135" x1="239.99" y1="347.75" x2="337.45" y2="337.12" gradientTransform="translate(-21.11 33.38) rotate(-7.96)" gradientUnits="userSpaceOnUse">
      <stop offset="0" stop-color="#fff" stop-opacity=".02"/>
      <stop offset=".11" stop-color="#fff" stop-opacity=".06"/>
      <stop offset=".28" stop-color="#fff" stop-opacity=".15"/>
      <stop offset=".5" stop-color="#fff" stop-opacity=".3"/>
      <stop offset=".72" stop-color="#fff" stop-opacity=".15"/>
      <stop offset=".89" stop-color="#fff" stop-opacity=".06"/>
      <stop offset="1" stop-color="#fff" stop-opacity=".02"/>
    </linearGradient>
  </defs>
  <circle class="cls-6" cx="248.61" cy="248.61" r="246.61"/>
  <circle class="cls-3" cx="248.61" cy="248.61" r="168.27"/>
  <g>
    <path class="cls-13" d="M466.25,303.22c-2.15-.32-4.33-.5-6.45-.98-4.37-.99-8.61-.82-12.86.67-2.17.76-4.48,1.15-6.82.86-3.01-.37-5.31-1.74-6.47-4.7-1.15-2.95-.69-5.84,1.58-7.79,4.5-3.85,8.29-8.37,12.53-12.44,3.77-3.62,8.64-3.33,11.75.87,3.62,4.89,7.16,9.55,13.17,11.79,2.16.81,3,3.04,2.71,5.47-.3,2.49-1.5,4.33-3.85,5.3-1.69.7-3.47.9-5.3.96Z"/>
    <path class="cls-8" d="M473.24,256.52c-.34,3.63-1,7.68-4.01,10.87-3.86,4.08-8.83,3.44-11.36-1.53-1.66-3.26-2.39-6.82-2.2-10.46.31-5.7,4.8-10.5,9.51-10.45,4.42.05,8.1,5.09,8.06,11.57Z"/>
    <path class="cls-8" d="M453.16,255.27c-.03,3.94-.42,6.89-1.75,9.59-2.26,4.58-7.06,5.38-10.38,1.58-3.79-4.33-5.26-9.39-3.3-15.06,1.37-3.95,4.97-6.66,8.29-6.42,3.11.23,6.07,3.35,6.9,7.41.25,1.25.22,2.56.24,2.89Z"/>
    <path class="cls-8" d="M485.79,273.62c-.41,4.81-2.39,8.91-6.09,12.06-2.33,1.98-5.07,2.61-7.91,1.02-2.94-1.65-3.94-4.39-3.57-7.56.46-3.97,2.41-7.33,4.98-10.3,2.17-2.52,4.71-4.82,8.34-3.36,3.5,1.41,3.92,4.8,4.26,8.15Z"/>
    <path class="cls-8" d="M439.34,275.61c-.09,3.3-.9,6.41-2.9,9.07-2.62,3.51-6.55,3.8-9.72.85-5.28-4.92-4.32-15.52,1.75-19.43,2.78-1.79,5.75-1.2,8.25,1.65,1.84,2.1,2.7,4.67,2.62,7.87Z"/>
  </g>
  <g>
    <path class="cls-13" d="M54.4,303.22c-2.15-.32-4.33-.5-6.45-.98-4.37-.99-8.61-.82-12.86.67-2.17.76-4.48,1.15-6.82.86-3.01-.37-5.31-1.74-6.47-4.7-1.15-2.95-.69-5.84,1.58-7.79,4.5-3.85,8.29-8.37,12.53-12.44,3.77-3.62,8.64-3.33,11.75.87,3.62,4.89,7.16,9.55,13.17,11.79,2.16.81,3,3.04,2.71,5.47-.3,2.49-1.5,4.33-3.85,5.3-1.69.7-3.47.9-5.3.96Z"/>
    <path class="cls-8" d="M61.39,256.52c-.34,3.63-1,7.68-4.01,10.87-3.86,4.08-8.83,3.44-11.36-1.53-1.66-3.26-2.39-6.82-2.2-10.46.31-5.7,4.8-10.5,9.51-10.45,4.42.05,8.1,5.09,8.06,11.57Z"/>
    <path class="cls-8" d="M41.32,255.27c-.03,3.94-.42,6.89-1.75,9.59-2.26,4.58-7.06,5.38-10.38,1.58-3.79-4.33-5.26-9.39-3.3-15.06,1.37-3.95,4.97-6.66,8.29-6.42,3.11.23,6.07,3.35,6.9,7.41.25,1.25.22,2.56.24,2.89Z"/>
    <path class="cls-8" d="M73.95,273.62c-.41,4.81-2.39,8.91-6.09,12.06-2.33,1.98-5.07,2.61-7.91,1.02-2.94-1.65-3.94-4.39-3.57-7.56.46-3.97,2.41-7.33,4.98-10.3,2.17-2.52,4.71-4.82,8.34-3.36,3.5,1.41,3.92,4.8,4.26,8.15Z"/>
    <path class="cls-8" d="M27.49,275.61c-.09,3.3-.9,6.41-2.9,9.07-2.62,3.51-6.55,3.8-9.72.85-5.28-4.92-4.32-15.52,1.75-19.43,2.78-1.79,5.75-1.2,8.25,1.65,1.84,2.1,2.7,4.67,2.62,7.87Z"/>
  </g>
  <g>
    <path d="M137.22,410.57s5.11-5.2,12.85-.48c5.26,3.21,7.03,8.89,4.17,13.58-1.39,2.28-3.39,3.45-5.62,3.7,1.35,2.62,1.43,5.56-.35,8.48-3.23,5.29-9.87,6.44-15.79,2.82-8.51-5.2-6.23-13.14-6.23-13.14l7.57.71s-2.21,4.45,1.94,6.98c2.31,1.41,4.78,1.13,6.22-1.22,1.45-2.38.7-5.14-1.51-6.49-.67-.41-1.33-.54-1.33-.54l2.52-4.12,1.37.84c1.67,1.02,4.22.55,5.44-1.46,1.08-1.77.22-4.05-1.55-5.13-3.48-2.13-6.21.9-6.21.9l-3.48-5.44Z"/>
    <path d="M172.37,421.76c6.36,2.8,9.78,10.41,5.25,20.68-4.85,10.99-12.44,12.83-18.8,10.03-6.36-2.8-10.15-9.67-5.31-20.66,4.53-10.27,12.49-12.85,18.85-10.05ZM161.44,446.54c3.23,1.43,6.54-.72,9.36-7.11,2.65-6,2.19-10.32-1.04-11.74-3.27-1.44-6.78,1.17-9.41,7.13-2.82,6.39-2.17,10.28,1.09,11.72Z"/>
    <path d="M179.43,464.74l-5.76-1.7,26.4-32.31,5.76,1.7-26.4,32.31Z"/>
    <path d="M204.83,439.52l10.18-4.13,3.43.66-6.08,31.81-7.25-1.39,4.24-22.17-5.89,2.39,1.37-7.17Z"/>
    <path d="M233.27,437.14c6.92.56,12.66,6.61,11.76,17.8-.96,11.97-7.52,16.21-14.45,15.65-6.92-.56-12.77-5.79-11.8-17.76.9-11.19,7.57-16.25,14.49-15.69ZM231.1,464.14c3.52.28,5.94-2.83,6.5-9.79.52-6.53-1.33-10.46-4.85-10.75-3.56-.29-6.02,3.34-6.54,9.83-.56,6.96,1.33,10.42,4.89,10.71Z"/>
    <path d="M254.01,475.43l-6,.27,14.41-39.17,6-.27-14.41,39.17Z"/>
    <path d="M277.78,448.16l-6.59-1.86s1.45-9.82,10.11-11.35c10.94-1.93,13.64,5,14.35,9.02,1.32,7.46-8.62,16.87-8.62,16.87l11.83-2.09,1.13,6.38-24.85,4.4-.32-1.82s14.03-16.47,12.99-22.35c-.21-1.16-1.17-5.02-5.42-4.26-3.48.62-4.61,7.07-4.61,7.07Z"/>
    <path d="M307.68,428.36c6.6-2.17,14.23,1.2,17.73,11.86,3.75,11.41-.67,17.86-7.27,20.02s-14.01-.4-17.76-11.81c-3.5-10.67.69-17.91,7.29-20.07ZM316.13,454.09c3.36-1.1,4.38-4.91,2.2-11.55-2.04-6.23-5.27-9.13-8.63-8.03-3.39,1.11-4.26,5.4-2.23,11.59,2.18,6.64,5.26,9.1,8.65,7.98Z"/>
    <path d="M331.91,418.48c6.24-3.06,14.26-.79,19.21,9.28,5.29,10.78,1.82,17.78-4.41,20.84-6.24,3.06-13.93,1.55-19.23-9.23-4.95-10.08-1.8-17.83,4.43-20.89ZM343.85,442.79c3.17-1.56,3.66-5.47.58-11.74-2.89-5.88-6.49-8.31-9.66-6.76-3.21,1.57-3.46,5.94-.59,11.79,3.08,6.27,6.47,8.28,9.68,6.71Z"/>
    <path d="M366.41,423.7s-.42.85-1.66,1.68c-3.68,2.47-10.69,2.6-14.9-3.66-4.27-6.35-1.02-12.56,3.84-15.82,6.03-4.05,13.39-3.23,16.85,1.92,3.17,4.72,3.21,7.87,2.97,13.56l-1.26,11.77-7.56,5.08,1.72-14.54ZM357.37,410.76c-2.38,1.6-2.98,4.51-1.4,6.85,1.62,2.41,4.63,2.94,6.94,1.39,2.25-1.51,2.89-4.5,1.27-6.91-1.58-2.34-4.43-2.93-6.81-1.33Z"/>
  </g>
  <g>
    <path class="cls-5" d="M34.66,168.71l7.66,7.11s-4.81,3.92-6.27,9c-1.1,3.82.05,6.35,2.74,7.12,2.75.79,6.06-3.3,10.06-8.23,3.91-4.83,10.3-9.52,16.75-7.67,11.77,3.38,13.32,13.52,10.56,23.14-3.31,11.53-11.83,16.65-11.83,16.65l-7.83-8.33s7.44-4.98,9.02-10.47c.7-2.45,1.8-7.18-2.8-8.5-3.58-1.03-6.71,3.77-11.31,8.78-4.62,5.07-10.22,7.22-15.36,5.74-9.2-2.64-12.72-12.45-10.44-20.39,2.57-8.96,9.05-13.96,9.05-13.96Z"/>
    <path class="cls-5" d="M92.09,158.89l-5.49,10.32-45.27-24.09,5.49-10.32,45.27,24.09Z"/>
    <path class="cls-5" d="M106.27,137.48l-7.71,8.78-38.55-33.81,7.71-8.78,37.37,5.66.08-.09-23.92-20.98,7.71-8.78,38.55,33.81-7.71,8.78-37.37-5.66-.08.09,23.92,20.98Z"/>
    <path class="cls-5" d="M122.94,54.05c11.94-7.41,27.61-4.55,35.47,8.12,7.9,12.73,3.56,28.01-8.43,35.45l-12.62,7.83-27.04-43.57,12.62-7.83ZM143.31,89.46c7.34-4.56,8.88-13.27,4.41-20.59-4.52-7.29-13.05-9.83-20.44-5.24l-1.53.95,16.03,25.82,1.53-.95Z"/>
    <path class="cls-5" d="M185.75,25.69c9.61-2.78,18.27.08,21.22,10.29,2.94,10.15-2.64,17.91-12.25,20.69l-6.75,1.95,5.29,18.27-11.22,3.25-14.26-49.25,17.97-5.2ZM188.55,48.76c4.42-1.28,8.16-3.98,6.71-9-1.47-5.07-6.08-5.36-10.5-4.08l-3.16.92,3.79,13.07,3.16-.92Z"/>
    <path class="cls-5" d="M256.12,26.93l-17.64.59.34,10.19,16.9-.56.34,10.25-16.9.56.34,10.31,17.64-.59.34,10.25-29.32.98-1.71-51.25,29.32-.98.34,10.25Z"/>
    <path class="cls-5" d="M277.78,18.16l35.31,7.26-2.06,10.05-11.93-2.45-8.26,40.18-11.45-2.35,8.26-40.18-11.93-2.45,2.06-10.05Z"/>
    <path class="cls-5" d="M364.6,51.9l-8.35,6.29s-3.02-5.43-7.76-7.75c-3.57-1.75-6.26-1.06-7.49,1.45-1.26,2.57,2.19,6.54,6.34,11.35,4.07,4.69,7.57,11.81,4.61,17.84-5.39,10.99-15.65,10.74-24.64,6.33-10.77-5.28-14.31-14.57-14.31-14.57l9.57-6.24s3.59,8.2,8.73,10.72c2.29,1.12,6.75,3.03,8.86-1.26,1.64-3.35-2.53-7.26-6.66-12.68-4.18-5.44-5.31-11.33-2.96-16.13,4.22-8.59,14.49-10.34,21.91-6.7,8.37,4.11,12.15,11.36,12.15,11.36Z"/>
    <path class="cls-5" d="M362.98,108.99l-8.69-7.81,34.29-38.13,8.69,7.81-13.67,15.21,12.29,11.06,13.67-15.21,8.69,7.81-34.29,38.13-8.69-7.81,13.76-15.3-12.29-11.06-13.76,15.3Z"/>
    <path class="cls-5" d="M449.14,130.88c7.22,12.27,3.12,28.1-9.79,35.69-12.91,7.6-28.54,3.96-36.01-8.74-7.69-13.07-3.1-28.18,9.81-35.78,12.91-7.6,28.83-3.34,35.99,8.83ZM413.08,152.1c4.73,8.04,13.27,7.48,19.86,3.6,6.59-3.88,11.1-11.29,6.5-19.11-4.57-7.77-13.3-7.53-19.89-3.66-6.59,3.88-11.32,10.92-6.46,19.17Z"/>
    <path class="cls-5" d="M474.11,195.76c2.35,9.73-.9,18.25-11.23,20.74-10.27,2.48-17.77-3.44-20.12-13.17l-1.65-6.83-18.49,4.46-2.74-11.36,49.84-12.03,4.39,18.18ZM450.94,197.52c1.08,4.47,3.61,8.33,8.69,7.11,5.13-1.24,5.62-5.83,4.54-10.3l-.77-3.2-13.23,3.19.77,3.2Z"/>
  </g>
  <path class="cls-15" d="M344.4,174.4c-7.58,3.09-13.13,3.96-13.75,6.31-.42,1.77-1.65,8.07-1.75,10.06-.6,10.27-1.44,9.23.49,18.2,2.76,8.86,7.86,8.57,8.89,29.4.99,20.25-1.9,39.49-8.53,39.89-3.74.22-.44-55.17-13.41-57.83-2.74-.1-4.29.15-6.53,0-1.94-.1-3.56,12.2-5.61,19.28-5.63,19.99-19.87,37.91-25.41,36.36-5.58-1.6,3.79-15.75,9.47-35.75,4.89-17.1,5.45-34.12,5.65-39.6.55-7.54.33-19.59-.65-25.78-5.26-10.06-31.63,43.46-34.74,43.74-5.74.51,6.37-32.89,18.58-49.26,10.36-13.88,9.33-12.48,24.7-12.18,7.82.76,2.52-8.21.83-10.4-3.52-4.33-5.02-10.31-3.5-16.45,1.65-6.69,7.17-12.05,13.88-13.57,12.27-2.78,23.17,6.5,23.17,18.35,0,7.23-4.07,13.5-10.04,16.65-1.59.84-2.28,2.74-1.6,4.41.03.07.06.14.09.21,1.56,3.84,5.65,5.95,9.72,5.19,5.19-.98,10.33-1.74,17.84-6.36,15.75-9.67,25.13-28.82,29.07-24.63,3.99,4.19-18.55,36.3-36.84,43.77Z"/>
  <path class="cls-15" d="M219.75,264.49c-7.58,3.09-13.16,3.99-13.76,6.33-.45,1.75-1.7,8.08-1.79,10.07-.05.95-.1,1.84-.15,2.59-.6,7.58-1.05,7.48.65,15.61.1.35.2.7.35,1h-36.3c.3-4.14.45-7.38.5-9.27.15-2.14.25-4.69.3-7.33.05-6.63-.25-14.01-.95-18.45-5.28-10.07-31.66,43.48-34.75,43.72-5.73.55,6.38-32.86,18.6-49.26,10.32-13.86,9.32-12.46,24.68-12.17,7.83.75,2.54-8.23.85-10.42-3.54-4.29-5.04-10.27-3.54-16.45,1.65-6.68,7.18-12.02,13.91-13.56,12.26-2.74,23.18,6.53,23.18,18.35,0,7.23-4.09,13.51-10.07,16.65-1.6.85-2.29,2.74-1.6,4.44.05.05.05.15.1.2,1.55,3.84,5.63,5.93,9.72,5.19,5.19-1,10.32-1.75,17.85-6.38,15.75-9.67,25.13-28.82,29.07-24.63,3.99,4.19-18.55,36.3-36.84,43.77Z"/>
  <g>
    <g id="metade_sao_paulo_gradiente">
      <g>
        <path class="cls-9" d="M230.43,322.73s-.04-.05-.04-.08c-.42-3.08-.84-6.15-1.25-9.23-.43-3.1-.86-6.2-1.29-9.29-.42-3.07-.83-6.13-1.25-9.2-.42-3.1-.84-6.19-1.27-9.28-.02,0-.03-.02-.03-.03-.34-2.62-.7-5.24-1.08-7.86-.06-.45-.11-.9-.14-1.34-23.56.23-47.11,3.7-70.67,16.53,2.12,14.32,4.25,28.72,6.37,43.19,22.97-10.92,45.95-13.46,68.92-13.3.49,0,.97,0,1.46-.01.12,0,.22-.03.31-.08-.01-.01-.02-.02-.04-.03ZM210.42,284.11s0,0,0,0c0,0,0,0,0,0,0,0,0,0,0,0,0,0,0,0,0,0,0,0,0,0,0,0,0,0,.01,0,.02,0,1.36-.22,2.71-.43,4.07-.63.02,0,.04-.02.04-.04.38-1.22.77-2.44,1.15-3.66,0,0,0,0,0,0,0,0,0-.01.02-.02,0,0,0,0,0,0,0,0,0,0,.01,0,0,0,0,0,.01,0,0,0,0,0,.01,0,0,0,.02,0,.02,0,0,0,0,0,0,0,0,0,0,0,0,0,0,0,0,0,0,0,0,0,0,0,0,0,0,0,0,0,0,0,.71,1.17,1.43,2.34,2.14,3.52.01.02.03.03.05.03,1.39.08,2.78.16,4.17.27,0,0,.01,0,.02,0,0,0,0,0,0,0,0,0,0,0,0,0,0,0,0,0,0,0,0,0,0,0,0,0,0,0,0,0,0,0,0,0,0,0,0,0,0,0,0,.01,0,.02,0,0,0,0,0,0,0,0,0,.01,0,.02,0,0,0,0,0,0,0,0,0,0,0,0,0,0,0,0,0,.01,0,0,0,0,0,0-.92.88-1.83,1.77-2.75,2.66-.01.01-.02.04-.01.05.47,1.26.95,2.53,1.42,3.8,0,.01,0,.02,0,.03,0,0,0,0,0,0,0,0,0,0,0,0,0,0,0,0,0,0,0,0,0,0-.02.01,0,0,0,0,0,0,0,0,0,0,0,0,0,0,0,0,0,0,0,0,0,0-.01,0,0,0-.01,0-.02,0,0,0-.01,0-.02,0-1.28-.64-2.56-1.26-3.84-1.88-.02,0-.04,0-.06,0-1.1.71-2.19,1.43-3.29,2.15,0,0-.01,0-.02,0,0,0,0,0-.01,0,0,0,0,0,0,0,0,0,0,0,0,0,0,0,0,0,0,0,0,0,0,0-.01,0-.01,0-.02-.01-.03-.02,0,0,0,0,0-.01,0,0,0,0,0,0,0,0,0,0,0,0,0,0,0,0,0-.01.12-1.29.25-2.57.37-3.85,0-.02,0-.04-.03-.05-1.15-.8-2.31-1.6-3.46-2.38,0,0,0,0,0,0,0,0,0-.01-.01-.02,0-.01,0-.02,0-.03ZM157.13,298.18s0,0,0-.01c0,0,0,0,0,0,0,0,0-.01,0-.02,0,0,0-.01.02-.02,0,0,.01-.01.02-.02,1.36-.81,2.71-1.58,4.07-2.33.02-.01.04-.03.04-.05.38-1.38.77-2.75,1.15-4.13,0,0,0,0,0-.01,0,0,0,0,0,0,0,0,0,0,0,0,0,0,0,0,0-.01,0,0,0,0,0,0,0,0,0,0,0,0,0,0,0,0,.01,0,0,0,0,0,.01,0,0,0,0,0,.01,0,0,0,.02,0,.02,0,0,0,.01,0,.02,0,0,0,0,0,0,0,0,0,0,0,0,0,.71.88,1.43,1.77,2.14,2.67.01.01.03.02.05.01,1.39-.47,2.78-.9,4.17-1.31.01,0,.03,0,.04,0,0,0,0,0,0,0,.01,0,.02.02.02.04,0,0,0,.01,0,.02,0,0,0,0,0,.01,0,0,0,0,0,0,0,0,0,0,0,0-.92,1.22-1.83,2.45-2.75,3.69-.01.02-.02.04-.01.06.48,1.08.95,2.17,1.43,3.26,0,0,0,.01,0,.02,0,0,0,0,0,.01,0,0,0,0,0,.01,0,0,0,0,0,0,0,0,0,0,0,0,0,0,0,0,0,0,0,0-.01.01-.02.02-.01,0-.03.01-.04.01-1.28-.16-2.56-.29-3.84-.4-.02,0-.04,0-.06.03-1.1,1.14-2.19,2.3-3.29,3.48-.01.01-.03.02-.04.03,0,0,0,0,0,0-.01,0-.02,0-.03,0,0,0,0,0,0,0,0,0,0,0,0,0,0,0,0,0,0,0,0,0,0,0,0-.01.12-1.34.25-2.67.37-4.01,0-.02,0-.04-.03-.04-1.15-.33-2.31-.64-3.46-.92,0,0-.01,0-.02-.01,0,0,0,0,0,0,0,0,0,0,0,0,0,0,0,0,0,0,0,0,0,0,0,0,0,0,0,0,0,0,0,0,0,0,0,0ZM173.07,321.13s0,0,0,.01c0,0,0,.01,0,.01-.92,1.19-1.84,2.39-2.76,3.6-.01.02-.02.03,0,.05.48,1.11.96,2.22,1.43,3.34,0,0,0,0,0,0,0,0,0,0,0,.01,0,0,0,0,0,0,0,0,0,0,0,0,0,0,0,0,0,0,0,0,0,0,0,0,0,0,0,0,0,0,0,0,0,.01-.01.02,0,0,0,0,0,0,0,0,0,0,0,0,0,0,0,0-.01,0,0,0-.02,0-.03,0-1.29-.21-2.58-.4-3.87-.56-.02,0-.04,0-.05.02-1.11,1.11-2.21,2.23-3.32,3.37-.01.01-.02.02-.03.02,0,0,0,0,0,0,0,0,0,0,0,0,0,0,0,0,0,0,0,0,0,0,0,0,0,0,0,0,0,0,0,0,0,0,0,0,0,0,0,0,0,0,0,0,0,0,0,0,0,0,0,0,0,0,0,0,0,0,0-.01,0,0,0,0,0-.01.13-1.34.25-2.68.38-4.02,0-.02,0-.03-.02-.04-1.16-.38-2.32-.74-3.48-1.08,0,0,0,0,0,0,0,0,0,0,0,0,0,0,0,0,0,0,0,0,0,0,0,0,0,0,0,0,0,0,0,0,0,0,0-.01,0,0,0,0,0,0,0,0,0,0,0,0,0,0,0,0,0,0,0,0,0,0,0,0,0,0,0-.01.01-.01,0,0,0,0,0,0,1.37-.75,2.73-1.48,4.1-2.18.02,0,.03-.03.04-.04.39-1.37.78-2.74,1.16-4.11,0,0,0,0,0,0,0,0,0,0,0,0,0,0,0-.01.01-.02,0,0,0,0,0,0,0,0,0,0,0,0,0,0,.01,0,.02,0,0,0,0,0,0,0,0,0,0,0,0,0,0,0,0,0,0,0,0,0,0,0,0,0,.72.92,1.44,1.84,2.16,2.78,0,.01.03.02.04.01,1.4-.41,2.8-.79,4.2-1.15,0,0,0,0,0,0,0,0,.01,0,.02,0,0,0,0,0,0,0,0,0,0,0,0,0,0,0,0,0,0,0,0,0,0,0,0,.01,0,0,0,0,0,0ZM194.61,321.8c-11.48,1.84-22-3.28-23.49-13.59-1.49-10.28,6.6-22.44,18.08-24.83,11.48-2.42,22,5.88,23.49,16.66,1.49,10.87-6.6,19.85-18.08,21.75ZM226.34,313.27c-.92.87-1.84,1.75-2.76,2.64-.01.01-.02.03,0,.04.48,1.28.95,2.56,1.43,3.85,0,0,0,.01,0,.02,0,0,0,0,0,0,0,.01,0,.02-.02.03,0,0,0,0,0,0,0,0,0,0,0,0-.01,0-.03,0-.04,0-1.29-.66-2.58-1.31-3.86-1.95-.02,0-.03,0-.05,0-1.1.69-2.21,1.39-3.31,2.1,0,0-.02,0-.02,0,0,0,0,0,0,0,0,0,0,0,0,0,0,0,0,0,0,0,0,0,0,0,0,0,0,0,0,0-.01,0,0,0,0,0,0,0,0,0,0,0,0-.01,0,0,0,0,0-.01,0,0,0,0,0-.01.12-1.29.25-2.58.37-3.87,0-.02,0-.03-.02-.04-1.16-.83-2.32-1.65-3.48-2.47,0,0,0,0,0,0,0,0,0,0,0,0,0,0,0,0,0-.01,0,0,0,0,0,0,0,0,0-.01,0-.02,0,0,0-.01,0-.01,0,0,0,0,.01-.01,0,0,.01,0,.02,0,1.36-.2,2.73-.38,4.09-.55.02,0,.03-.01.04-.03.39-1.22.78-2.44,1.16-3.66,0,0,0,0,0,0,0,0,.01-.01.02-.02,0,0,0,0,0,0,0,0,0,0,0,0,0,0,.01,0,.02,0,0,0,0,0,.01,0,0,0,0,0,0,0,0,0,0,0,0,.01.72,1.19,1.44,2.38,2.16,3.58,0,.02.03.03.04.03,1.4.1,2.8.21,4.2.34,0,0,.02,0,.03.01,0,0,0,0,0,0,0,0,0,0,0,0,0,0,0,0,.01.01,0,0,0,.01,0,.02,0,.01,0,.02-.01.03Z"/>
        <g>
          <path class="cls-2" d="M189.2,283.38c-11.48,2.39-19.57,14.54-18.08,24.83,1.49,10.3,12.01,15.43,23.49,13.59,11.48-1.9,19.57-10.88,18.08-21.75-1.49-10.78-12.01-19.09-23.49-16.66ZM194.67,291.18c.06.14,0,.23-.15.27-.13.03-.23.06-.31.09-.12.05-.14.02-.05-.07.02-.02.02-.06,0-.11,0,0,0,0,0-.01,0,0,0,0,0,0,0,0,0,0,0,0,0,0,0,0,0,0,0,0,0,0,0,0,0,0,0,0,0,0,0,0,0,0,0,0,0,0-.01,0-.02,0,0,0,0,0,0,0,0,0-.02,0-.02.01-.04.05-.07.08-.07.1,0,.18-.07.21-.21.07-.01-.01,0-.05.04-.12.08-.15.18-.27.31-.36,0,0,.02-.01.03-.01,0,0,0,0,0,0,.01,0,.02,0,.03,0,0,0,0,0,0,0,0,0,0,0,.01.01,0,0,0,0,0,0,.02.03.03.06.05.09.01.02.04.04.07.03.07-.01.15-.03.22-.04.04,0,.06,0,.08.04ZM208.94,298.07s-.09.11-.23.28c-.06.08-.12.16-.16.27-.05.11-.1.2-.16.26-.27.31-.51.57-.74.78-.2.19-.33.4-.51.64-.03.04-.07.22-.11.54-.02.13-.16.31-.3.45-.11.1-.2.21-.28.31-.08.12-.18.16-.33.13-.03,0-.05-.02-.07-.04-.04-.05-.07-.09-.11-.14-.02-.02-.04-.03-.07-.02-.01,0-.02.01-.03.02-.02.02-.02.04,0,.07.02.04.04.08.06.13.01.03.01.05,0,.08-.11.22-.18.44-.21.65,0,.03,0,.06.02.08.07.1.13.19.16.28.07.16-.1.56-.12.7,0,.03,0,.06.02.09.08.14.14.35.17.61.01.11,0,.23-.05.37-.13.37-.23.68-.2,1.08,0,.09-.02.23-.07.29-.31.42-.42.87-.31,1.34.02.09-.04.21-.17.38-.16.2-.31.42-.44.65-.16.27-.45.56-.49.85-.01.09-.05.16-.1.22-.02.02-.03.05-.03.08.01.15-.01.24-.07.28-.14.08-.28.16-.41.23-.19.1-.11.2-.17.35-.07.17-.21.22-.42.16-.11-.04-.22-.07-.3-.09-.05-.01-.09,0-.13.03-.24.21-.46.23-.66.05-.03-.02-.06-.03-.09-.01-.08.03-.15.07-.23.1-.03.01-.06.02-.09.01-.11-.01-.22-.02-.33-.03-.04,0-.07.01-.08.05-.02.07-.04.15-.06.22,0,.01-.01.02-.02.03-.15.12-.28.25-.39.39-.02.02-.08.05-.19.09-.03.01-.1.01-.21,0-.12-.01-.25-.02-.34.06-.18.16-.37.25-.56.42-.18.18-.41.37-.67.57-.09.07-.17.21-.24.44,0,.03-.03.05-.06.06-.08.03-.16.02-.25-.01-.11-.05-.14-.02-.08.08.02.03.03.06.05.09.01.02.01.05,0,.07-.13.29-.15.58-.06.88.06.19.09.33.09.42,0,.27,0,.52-.04.76-.03.25-.2.38-.41.54-.13.09-.22.25-.38.34-.03.02-.04.04-.04.07,0,.08,0,.16-.06.24-.14.19-.21.42-.23.66,0,.05-.04.14-.1.28-.04.08-.1.16-.17.24-.15.17-.23.31-.39.43-.1.08-.2.2-.31.36-.03.05-.08.05-.14.02-.02-.01-.04-.04-.05-.07-.03-.06,0-.13.05-.18.12-.09.24-.18.36-.27.04-.03.05-.06.05-.11,0-.05-.01-.1-.02-.15,0-.02.01-.05.04-.05.16-.04.25-.1.28-.19.07-.21.11-.33.12-.35,0,0,0-.01,0-.01,0-.01,0-.02,0-.03,0-.01-.01-.02-.02-.03,0,0,0,0,0,0,0,0,0,0,0,0,0,0,0,0,0,0,0,0,0,0,0,0,0,0,0,0,0,0,0,0,0,0,0,0-.01,0-.02,0-.03,0-.14.06-.24.04-.28-.07-.02-.05-.05-.09-.06-.1-.04-.03-.08-.03-.13-.03,0,0,0,0,0,0,0,0,0,0,0,0,0,0,0,0,0,0,0,0,0,0,0,0,0,0-.01,0-.02.01,0,0,0,0,0,0,0,0,0,0,0,0,0,0,0,0,0,0,0,0,0,0,0,.01,0,0,0,0,0,0,0,0,0,0,0,.01,0,0,0,0,0,.01.1.1.13.18.09.34-.04.14-.07.27-.09.38,0,.03-.02.06-.04.08-.03.03-.09.1-.17.19-.16.18-.23.39-.22.63,0,.16,0,.28-.02.34-.04.11-.06.27-.07.48,0,.06-.03.12-.08.15-.12.09-.24.18-.35.27-.07.05-.16.05-.21,0-.2-.19,0-.36.14-.59,0,0,0-.01,0-.02,0,0,0,0,0,0,0,0,0,0,0,0,0,0,0,0,0-.01,0,0,0,0,0,0,0,0,0,0,0,0,0-.01,0-.02,0-.03,0,0,0-.01-.01-.02,0,0,0,0,0,0,0,0,0,0,0-.01,0,0,0,0-.01,0,0,0,0,0-.01,0,0,0,0,0,0,0,0,0,0,0,0,0,0,0,0,0-.01,0,0,0,0,0-.01,0-.19-.04-.33-.16-.43-.35-.01-.03-.04-.05-.07-.06-.22-.08-.41-.19-.57-.34-.02-.02-.05-.03-.08-.04-.29-.04-.66-.09-.67-.4,0-.14-.05-.14-.13-.03-.03.04-.05.08-.08.11,0,0-.01.02-.02.02,0,0,0,0-.01.01,0,0,0,0,0,0,0,0-.01.01-.02.01,0,0,0,0,0,0,0,0-.01,0-.02.01,0,0,0,0,0,0,0,0-.01,0-.02,0,0,0,0,0,0,0-.01,0-.02,0-.04,0,0,0,0,0,0,0-.01,0-.02,0-.04,0,0,0-.01,0-.02,0,0,0-.01,0-.02,0,0,0,0,0,0,0,0,0,0,0,0,0,0,0,0,0-.01,0-.01,0-.02-.01-.03-.02-.06-.06-.11-.19-.19-.23-.12-.06-.22-.14-.32-.23,0,0-.01-.01-.02-.01,0,0-.01,0-.02-.01,0,0,0,0,0,0,0,0-.01,0-.02,0,0,0-.01,0-.02,0,0,0-.01,0-.02,0,0,0-.02,0-.02,0-.01,0-.03,0-.04,0-.03,0-.05.01-.07.03,0,0,0,0-.01,0,0,0,0,0,0,0,0,0,0,0-.01,0,0,0,0,0-.01.01-.04.04-.09.08-.13.13,0,0-.01.01-.02.02,0,0,0,0-.01,0,0,0,0,0-.01,0,0,0,0,0,0,0,0,0-.01,0-.02.01,0,0-.02,0-.02.01,0,0-.01,0-.02,0,0,0-.01,0-.02,0,0,0,0,0,0,0,0,0-.01,0-.02,0,0,0-.01,0-.02,0,0,0-.01,0-.02,0,0,0,0,0-.01,0,0,0-.01,0-.02,0,0,0-.02,0-.03,0,0,0,0,0-.01,0,0,0,0,0-.01,0,0,0,0,0,0,0-.01,0-.02-.02-.03-.03,0,0,0,0,0,0,0,0,0,0,0-.01,0,0,0-.01,0-.02-.02-.07,0-.16.08-.25.08-.1.2-.12.27-.28.11-.22.24-.5.39-.67.16-.18.28-.35.37-.51.14-.26.46-.44.65-.68.18-.24.55-.19.68-.5.07-.18.01-.46.04-.64.03-.2-.1-.37-.21-.49-.04-.04-.09-.06-.15-.05-.08.01-.17.03-.25.05,0,0-.01,0-.02,0-.02,0-.04,0-.05,0,0,0-.02,0-.03,0,0,0-.01,0-.01,0,0,0,0,0-.01,0,0,0,0,0,0,0,0,0-.01-.01-.02-.02,0,0,0,0-.01-.01,0,0,0,0,0-.01,0,0-.01-.02-.01-.03,0,0,0,0,0-.02,0,0,0,0,0-.02,0,0,0,0,0,0,0-.02,0-.04,0-.05.05-.2.07-.35.09-.45,0-.05,0-.13-.02-.24-.01-.07-.02-.15,0-.24.02-.11.01-.18,0-.22-.1-.18-.48-.08-.66-.03-.11.03-.23,0-.3-.07-.07-.07-.12-.18-.16-.31-.07-.25-.15-.44-.23-.56-.05-.08-.11-.12-.18-.12-.18,0-.31-.03-.38-.06-.03-.01-.06,0-.09,0-.08.04-.15.08-.25.08-.31,0-.6.04-.87.13,0,0,0,0-.01,0,0,0-.01,0-.02,0,0,0-.01,0-.02,0,0,0-.02,0-.02,0,0,0,0,0-.01,0,0,0,0,0,0,0,0,0,0,0-.01,0,0,0,0,0-.01-.01,0,0,0,0,0,0,0,0,0,0,0-.01,0,0,0,0,0,0,0,0,0,0,0,0,0,0,0,0,0,0-.05-.24-.06-.48-.03-.73,0-.07-.03-.17-.11-.31-.02-.03-.11-.16-.27-.39-.02-.02-.02-.05-.01-.08.03-.08.07-.15.14-.21.02-.02.03-.04.02-.06,0,0,0,0,0-.01,0,0,0,0,0,0,0,0,0,0,0-.01,0,0,0,0,0,0,0,0,0,0,0,0,0,0,0,0,0,0,0,0,0,0-.01,0-.06-.03-.1-.06-.13-.09-.02-.02-.03-.05-.02-.08.02-.11.07-.33.16-.68.07-.27.1-.45.08-.55-.03-.17-.13-.32-.3-.43-.19-.12-.41-.19-.52-.35-.12-.17-.17-.34-.13-.5,0,0,0-.02,0-.02,0,0,0,0,0,0,0,0-.02-.01-.03-.01,0,0,0,0-.01,0-.4.07-.8.15-1.2.25-.09.02-.19,0-.27-.08-.16-.14-.07-.43-.21-.59-.04-.04-.09-.09-.16-.15,0,0,0,0,0,0,0,0,0,0,0,0,0,0,0,0,0,0,0,0,0-.02,0-.03,0,0,0,0,0,0,0,0,0,0,0,0,0,0,0,0,0-.01,0,0,0,0,0,0,0,0,0,0,0,0,0,0,0,0,0,0,.32-.26,0-.49-.1-.68-.01-.02-.02-.05-.02-.08,0-.07-.01-.13-.03-.18-.01-.03-.03-.04-.06-.05-.21-.06-.39-.11-.53-.14-.16-.03-.25.02-.35.14-.02.02-.05.04-.08.05-.21.08-.36-.05-.48-.15-.03-.03-.07-.04-.11-.04-.12,0-.29.03-.41-.01-.15-.05-.29-.08-.43-.09-.03,0-.06-.01-.09-.03-.34-.2-.46-.09-.84.06-.08.03-.17.02-.23-.03-.08-.07-.11-.11-.24-.12-.38-.04-.62-.23-.74-.58-.04-.11,0-.18.03-.3.01-.03,0-.06-.02-.08-.05-.05-.1-.11-.15-.16-.03-.03-.04-.08-.04-.12.02-.14.03-.28.05-.42,0,0,0-.01,0-.02,0-.01,0-.02,0-.03,0,0,0,0,0-.01,0,0,0,0,0-.01,0,0,0,0,0-.01,0,0-.01-.01-.02-.02,0,0,0,0-.01,0,0,0,0,0-.01,0,0,0,0,0-.01,0,0,0,0,0-.01,0,0,0-.01,0-.02,0,0,0,0,0-.01,0,0,0-.02,0-.03,0,0,0,0,0-.01,0,0,0,0,0,0,0,0,0,0,0-.01,0-.01,0-.02,0-.04,0-.37.14-.58.19-.85.34-.08.04-.18.13-.29.27-.07.09-.23.27-.49.56-.12.13-.19.14-.33.19-.03.01-.05.03-.06.06-.07.2-.08.34-.32.41-.27.08-.61.16-1.03.26-.17.04-.28.12-.42.23-.08.06-.17.08-.25.05-.05-.02-.08-.07-.09-.16-.03-.38-.07-.66-.11-.84,0-.03-.03-.04-.06-.03-.23.08-.4.24-.51.45-.09.18-.22.26-.38.21-.15-.04-.2-.17-.28-.26-.02-.03-.05-.04-.08-.03-.12.01-.24.02-.36.04-.03,0-.06.02-.09.04-.03.03-.06.06-.09.09-.03.02-.05.03-.09.03-.07-.01-.09-.06-.07-.13.04-.12.06-.2.07-.24,0-.03,0-.06-.02-.08-.16-.19-.34-.34-.55-.44-.04-.02-.1-.09-.16-.2-.06-.11-.16-.15-.27-.19-.02,0-.03-.02-.04-.04,0,0,0,0,0,0,0,0,0,0,0,0,0,0,0,0,0-.01,0,0,0-.01,0-.02,0,0,0,0,0-.01,0,0,0,0,0,0,0,0,0-.01,0-.02,0,0,0,0,0-.01,0,0,0,0,.01-.01.05-.05.09-.1.12-.16.01-.03.02-.06.02-.09-.02-.11-.03-.21-.05-.32,0-.06.02-.13.08-.17.15-.11.24-.25.28-.4,0-.04,0-.17-.02-.4-.02-.22.02-.46.12-.71.11-.27.4-.46.55-.68.07-.09.15-.17.26-.22.02-.01.13-.08.31-.19.03-.02.06-.03.09-.03.06,0,.12-.01.18-.02.02,0,.05-.02.06-.03.05-.07.1-.14.15-.21.02-.03.05-.04.08-.04.08,0,.16.01.24.02,0,0,0,0,.01,0,0,0,0,0,.01,0,0,0,.02,0,.03,0,0,0,.01,0,.02,0,0,0,.01,0,.02-.01,0,0,.01,0,.02-.01,0,0,.01,0,.02-.01,0,0,0,0,.01-.01,0,0,0,0,0,0,0,0,.01-.01.01-.02,0,0,0-.01,0-.02,0,0,0,0,0-.01,0,0,0-.02,0-.02.06-.85.09-1.48.1-1.87,0-.1-.01-.22-.04-.36-.03-.11-.02-.22.02-.34.01-.03,0-.06,0-.08-.1-.22-.23-.36-.38-.42-.13-.05-.22-.11-.24-.17-.13-.25-.19-.58.15-.8.04-.03.09-.04.15-.04.06,0,.11.01.13.03.08.05.13.02.15-.09.03-.16,0-.24-.08-.24-.03,0-.06,0-.09.02-.27.16-.42.12-.47-.13-.02-.1-.03-.19-.03-.29,0-.07.07-.14.15-.16.39-.06.76-.15,1.09-.28.07-.03.11-.1.1-.16,0-.04-.02-.07-.02-.11-.02-.09.02-.12.11-.09.07.02.14.05.21.07.04.01.08,0,.11-.04.07-.11.13-.26.23-.3.24-.1.45.38.49.52.01.05.05.08.1.1.2.07.4.14.61.21.01,0,.02,0,.04,0,0,0,0,0,.01,0,0,0,.01,0,.02,0,0,0,.01,0,.02,0,.01,0,.02-.01.03-.02,0,0,0,0,0,0,0,0,0,0,0,0,0,0,0,0,0,0,0,0,.01-.02.02-.02,0-.01.01-.02.01-.04.01-.09.04-.17.07-.22,0,0,0-.01.01-.02,0,0,0,0,0,0,0,0,0,0,.01-.01,0,0,0,0,0,0,0,0,0,0,.01,0,0,0,0,0,.01,0,0,0,.01,0,.02,0,.01,0,.03-.01.05-.01,0,0,0,0,.01,0,0,0,.01,0,.02,0,0,0,.01,0,.02,0,0,0,0,0,0,0,0,0,0,0,0,0,0,0,0,0,0,0,0,0,0,0,.01,0,.05.05.1.1.15.15.02.02.06.02.09,0,0,0,0,0,0,0,0,0,0,0,.01-.01.22-.3.44-.6.65-.89,0-.01.02-.02.03-.03,0,0,0,0,.01,0,.01,0,.02,0,.03,0,0,0,0,0,.01,0,0,0,0,0,.01,0,0,0,0,0,0,0,.04.03.09.04.14.05.03,0,.06-.02.07-.04.04-.08.07-.19.1-.33.06-.3.24-.28.48-.39.04-.02.06-.05.04-.09,0-.01,0-.02-.01-.03-.01-.03-.05-.04-.12-.01-.11.04-.22.13-.39.1-.24-.04-.36-.21-.35-.49,0-.16.1-.28.14-.43.03-.1,0-.17-.05-.21-.07-.05-.21,0-.33.03-.08.02-.15-.03-.16-.1,0-.11.04-.24.16-.38,0,0,0,0,.01-.01,0,0,0,0,0,0,0,0,0,0,.01-.01,0,0,0,0,.01-.01,0,0,0,0,.01-.01,0,0,.01,0,.02-.01,0,0,0,0,.01,0,.01,0,.02,0,.03-.01,0,0,.01,0,.02,0,0,0,.02,0,.03,0,0,0,0,0,.01,0,0,0,0,0,0,0,0,0,.01,0,.02,0,0,0,.01,0,.02,0,0,0,.01,0,.02,0,0,0,.02,0,.02.01,0,0,.01,0,.01.01.15.13.36.17.62.13.16-.03.26-.01.35.08.09.08.14.06.13-.07,0-.13.06-.25.2-.37.12-.1.37-.12.53-.17.27-.09.25-.21.38-.37.02-.02.05-.04.07-.05.25-.09.66-.35.56-.64,0-.02,0-.04-.01-.06,0-.03.01-.05.05-.06.15-.04.25-.09.32-.16.12-.11.18-.09.17.06,0,.12.03.25.1.4.01.03.04.04.07.05.09.01.19.03.28.04.04,0,.07.03.09.06.09.16.18.32.26.48.02.03,0,.07-.02.1-.21.2-.31.45-.32.74,0,.17.08.24.21.32.08.05.11.13.09.26-.04.35.42.47.71.51.13.02.27-.05.33-.17.13-.25.45-.39.71-.45.04,0,.06-.03.07-.06.02-.04.03-.08.05-.12.04-.09.13-.15.23-.15.14,0,.28,0,.41,0,.11,0,.21-.08.23-.18,0-.01.01-.03.03-.05.02-.02.04-.03.07-.02.07.03.15.05.22.08.11.04.14.01.09-.09-.01-.02-.04-.07-.07-.13-.09-.15-.06-.26.08-.35,0,0,.02,0,.03,0,.12,0,.24,0,.36,0,.04,0,.07-.01.11-.04.08-.07.16-.13.25-.2.08-.07.19-.07.28-.02.07.04.13.08.2.13,0,0,0,0,.01,0,.15.02.31.04.46.05.03,0,.05,0,.07-.02.06-.05.13-.1.19-.15.02-.02.05-.04.08-.04.14-.04.27-.04.41,0,.15.04.25.05.29.04.06-.01.13-.05.2-.12.04-.04.07-.1.1-.19.14-.48.33-.96.58-1.46.05-.1.13-.16.25-.19.03,0,.05-.02.06-.05,0-.03.01-.04.01-.05-.04-.11,0-.13.09-.07.11.07.2.15.25.23.04.06.07.16.1.3.05.29.13.49.24.61.16.18.26.39.3.64.02.1.11.17.22.15.17-.03.35-.07.47.02.11.08.12.21.04.38-.19.38-.43.74-.73,1.06-.19.21-.37.48-.52.82-.05.12-.08.2-.08.24,0,.16.05.16.12,0,.12-.23.23-.47.35-.7,0-.02.04-.04.07-.06.08-.04.12-.09.13-.17,0,0,0-.02,0-.03,0,0,0,0,0-.01,0,0,0,0,.01-.01,0,0,0,0,0,0,0,0,0,0,0,0,0,0,0,0,0,0,0,0,0,0,.01,0,0,0,.01,0,.02,0,0,0,0,0,0,0,0,0,0,0,.01,0,0,0,0,0,0,0,0,0,0,0,0,0,0,0,0,0,.01,0,0,0,0,0,0,0,0,0,0,0,.02,0,.09.05.12.13.1.23,0,.03-.02.05-.06.05-.09,0-.17.08-.23.23-.06.15-.16.49-.35.66-.06.05-.14.1-.24.13-.18.06-.36.13-.57.21-.04.02-.07.06-.06.1,0,.01,0,.02,0,.03,0,0,0,0,0,0,0,0,0,0,0,0,0,0,0,0,0,0,0,0,0,0,0,0,0,0,0,0,0,0,0,0,0,0,0,0,0,0,0,0,0,0,0,0,0,0,0,0,0,0,0,0,.01,0,0,0,0,0,0,0,.23-.07.4-.13.5-.2.25-.16.45-.28.59-.36.11-.06.22-.07.33-.05.02,0,.04,0,.05-.03.09-.25.1-.46.01-.61-.02-.03-.01-.06,0-.09.09-.15.19-.24.29-.28.16-.05.4-.1.73-.15.14-.02.21.02.33.06.03,0,.05,0,.07-.02.13-.14.29-.19.51-.16.07.01.13.04.18.09.23.23-.22.54-.41.69-.03.02-.04.05-.04.08,0,.07.02.14.07.22,0,0,0,.02,0,.02,0,0,0,0,0,.01,0,.01,0,.03-.02.04,0,0,0,0,0,0,0,0,0,0,0,0,0,0,0,0,0,0,0,0,0,0-.01,0,0,0,0,0-.01,0,0,0-.01,0-.02,0-.34-.02-.49.18-.75.36-.02.02-.05.02-.08.03-.12,0-.25.01-.37.02-.02,0-.04,0-.08-.03-.12-.07-.24-.14-.36-.21-.05-.03-.06-.02-.04.03.07.2.02.36-.15.48,0,0,0,0,0,0,0,0,0,0,0,0,0,0,0,0,0,0,0,0,0,0,0,0,0,0,0,0,0,0,0,0,0,0,0,0,0,0,0,0,0,0,0,0,0,0,0,.01,0,0,0,0,0,0,0,0,0,0,0,0,0,0,0,0,0,0,.05.05.12.01.18-.1,0,0,0,0,0,0,0,0,0,0,0-.01,0,0,0,0,0,0,0,0,0,0,.01,0,0,0,0,0,.01,0,0,0,0,0,0,0,0,0,0,0,0,0,0,0,0,0,.01,0,0,0,0,0,0,0,.01,0,.02,0,.03,0,0,0,0,0,0,0,0,0,.01,0,.02,0,0,0,.01,0,.02,0,.07.05.14.09.2.14.02.02.05,0,.07-.01.02-.03.03-.05.04-.09,0-.06.06-.1.11-.1.12,0,.25-.01.37-.02.03,0,.06-.01.07-.03.16-.18.36-.28.6-.32.03,0,.06-.02.08-.05.09-.11.2-.15.35-.12.04,0,.05,0,.02-.03-.12-.14-.11-.29.03-.45.15-.17.28-.29.39-.37.11-.08.25-.11.42-.11.28,0,.55.04.81.1.08.02.14.1.24.13.29.06.58.08.87.07,0,0,.01,0,.02,0,0,0,0,0,.01,0,0,0,0,0,.01,0,.01,0,.02,0,.03.01,0,0,.01,0,.02,0,0,0,0,0,.01,0,0,0,.01.01.02.02,0,0,0,0,0,.01,0,0,0,0,0,0,0,0,0,.01.01.02,0,0,0,0,0,0,0,0,0,0,0,0,0,0,0,0,0,0,0,0,0,.02,0,.02,0,0,0,0,0,.01,0,0,0,0,0,.01,0,0,0,.02,0,.03-.02.07-.01.12.04.16.05.04.09.03.09-.04,0-.05.01-.1.02-.15,0-.03.02-.05.05-.05.13-.02.23,0,.3.05.1.07.2.15.31.23.03.02.04.04.04.08,0,.04,0,.08-.01.12,0,.03,0,.05.03.08.01.02.02.02.03.02.12,0,.14.03.07.12-.09.1-.15.21-.17.33-.04.21-.09.43-.15.66,0,0,0,0,0,0,0,0,.01.01.02.02,0,0,0,0,0,0,0,0,0,0,0,0,0,0,0,0,0,0,0,0,0,0,0,0,0,0,0,0,0,0,0,0,0,0,0,0,.13-.28.25-.57.38-.85.02-.05.08-.08.14-.07.06.01.11.03.17.04.04,0,.08,0,.1-.04.02-.03.04-.07.06-.1.02-.03.05-.04.08-.02.04.02.07.04.11.05.02.01.06.01.08,0,.05-.03.09-.07.14-.1.03-.02.06-.03.1-.02.33.08.67.17,1,.25.02,0,.05,0,.08,0,.25-.07.49-.04.72.1.07.04.15.04.22,0,.28-.16.6-.23.95-.22.29.01.45.19.73.23.25.03.43.08.51.15.42.31.96.66,1.62,1.06.26.16.53.22.82.21.24-.02.38-.02.4-.02.23.02.53.04.68.23.15.2.27.43.35.69.15.44.26.9.32,1.36.03.2.01.38-.04.56-.09.29-.14.6-.29.87Z"/>
          <path class="cls-14" d="M208.96,295.28c-.09-.26-.21-.49-.35-.69-.14-.19-.45-.21-.68-.23-.02,0-.16,0-.4.02-.29.02-.56-.05-.82-.21-.66-.4-1.2-.75-1.62-1.06-.09-.06-.26-.11-.51-.15-.27-.04-.44-.22-.73-.23-.36-.01-.67.06-.95.22-.07.04-.15.04-.22,0-.23-.14-.47-.17-.72-.1-.03,0-.05,0-.08,0-.33-.09-.67-.17-1-.25-.04,0-.07,0-.1.02-.05.03-.09.07-.14.1-.02.02-.05.02-.08,0-.04-.02-.07-.04-.11-.05-.04-.02-.06,0-.08.02-.02.03-.04.07-.06.1-.02.03-.06.05-.1.04-.06-.01-.11-.03-.17-.04-.06-.01-.12.01-.14.07-.13.28-.25.57-.38.85,0,0,0,0,0,0,0,0,0,0,0,0,0,0,0,0,0,0,0,0,0,0,0,0,0,0,0,0,0,0,0,0,0,0,0,0,0,0-.01-.01-.02-.02,0,0,0,0,0,0,.06-.22.1-.45.15-.66.02-.12.08-.23.17-.33.07-.08.05-.12-.07-.12,0,0-.01,0-.03-.02-.02-.02-.03-.05-.03-.08,0-.04,0-.08.01-.12,0-.03,0-.06-.04-.08-.11-.08-.22-.16-.31-.23-.07-.05-.17-.07-.3-.05-.03,0-.05.02-.05.05,0,.05-.01.1-.02.15,0,.07-.04.08-.09.04-.05-.04-.06-.09-.04-.16,0,0,0-.02,0-.03,0,0,0,0,0-.01,0,0,0,0,0-.01,0,0,0-.02,0-.02,0,0,0,0,0,0,0,0,0,0,0,0,0,0,0,0,0,0,0,0,0-.01-.01-.02,0,0,0,0,0,0,0,0,0,0,0-.01,0,0-.01-.01-.02-.02,0,0,0,0-.01,0,0,0,0,0-.02,0-.01,0-.02,0-.03-.01,0,0,0,0-.01,0,0,0,0,0-.01,0,0,0-.01,0-.02,0-.29.01-.58,0-.87-.07-.1-.02-.16-.11-.24-.13-.26-.06-.54-.09-.81-.1-.17,0-.31.03-.42.11-.11.08-.24.2-.39.37-.14.16-.15.31-.03.45.03.03.02.04-.02.03-.14-.03-.26.01-.35.12-.02.03-.05.04-.08.05-.24.03-.44.14-.6.32-.02.02-.04.03-.07.03-.12,0-.25.01-.37.02-.06,0-.11.05-.11.1,0,.03-.02.06-.04.09-.02.02-.05.03-.07.01-.07-.05-.14-.09-.2-.14,0,0,0,0,0,0,0,0,0,0,0,0,0,0-.01,0-.02,0,0,0,0,0,0,0-.01,0-.02,0-.03,0,0,0,0,0,0,0,0,0,0,0-.01,0,0,0,0,0,0,0,0,0,0,0,0,0,0,0,0,0-.01,0,0,0,0,0-.01,0,0,0,0,0,0,0,0,0,0,0,0,.01,0,0,0,0,0,0-.07.11-.13.15-.18.1,0,0,0,0,0,0,0,0,0,0,0,0,0,0,0,0,0,0,0,0,0,0,0-.01,0,0,0,0,0,0,0,0,0,0,0,0,0,0,0,0,0,0,0,0,0,0,0,0,0,0,0,0,0,0,0,0,0,0,0,0,0,0,0,0,0,0,.17-.12.22-.28.15-.48-.02-.05,0-.06.04-.03.12.07.24.14.36.21.03.02.06.03.08.03.12,0,.25-.01.37-.02.03,0,.05,0,.08-.03.26-.18.4-.37.75-.36,0,0,.01,0,.02,0,0,0,0,0,.01,0,0,0,0,0,.01,0,0,0,0,0,0,0,0,0,0,0,0,0,0,0,0,0,0,0,.01-.01.02-.03.02-.04,0,0,0,0,0-.01,0,0,0-.02,0-.02-.05-.07-.07-.14-.07-.22,0-.03.02-.06.04-.08.19-.15.65-.46.41-.69-.05-.05-.11-.08-.18-.09-.22-.03-.39.02-.51.16-.02.02-.04.03-.07.02-.13-.04-.19-.08-.33-.06-.33.05-.57.1-.73.15-.1.03-.2.13-.29.28-.02.03-.02.06,0,.09.09.16.08.36-.01.61,0,.02-.02.03-.05.03-.11-.02-.22,0-.33.05-.15.07-.35.19-.59.36-.1.07-.27.13-.5.2,0,0-.01,0-.02,0,0,0,0,0,0,0,0,0,0,0,0,0,0,0,0,0,0,0,0,0,0,0,0,0,0,0,0,0,0,0,0,0,0,0,0,0,0,0,0,0,0,0,0,0,0,0,0,0,0-.01,0-.02,0-.03,0-.04.02-.08.06-.1.2-.08.39-.15.57-.21.1-.03.18-.08.24-.13.2-.17.29-.51.35-.66.06-.15.14-.23.23-.23.03,0,.05-.02.06-.05.02-.1-.02-.18-.1-.23,0,0,0,0-.02,0,0,0,0,0,0,0,0,0,0,0-.01,0,0,0,0,0,0,0,0,0,0,0,0,0,0,0,0,0-.01,0,0,0,0,0,0,0,0,0-.01,0-.02,0,0,0,0,0-.01,0,0,0,0,0,0,0,0,0,0,0,0,0,0,0,0,0,0,0,0,0,0,0-.01.01,0,0,0,0,0,.01,0,0,0,.02,0,.03-.01.08-.05.14-.13.17-.04.02-.06.04-.07.06-.12.23-.23.47-.35.7-.08.15-.12.15-.12,0,0-.04.03-.12.08-.24.16-.34.33-.62.52-.82.3-.32.55-.68.73-1.06.08-.17.07-.3-.04-.38-.12-.09-.3-.05-.47-.02-.11.02-.21-.05-.22-.15-.04-.25-.14-.46-.3-.64-.11-.12-.19-.32-.24-.61-.03-.14-.06-.24-.1-.3-.06-.08-.14-.16-.25-.23-.1-.06-.13-.04-.09.07,0,0,0,.02-.01.05,0,.03-.03.04-.06.05-.11.02-.19.09-.25.19-.25.49-.44.98-.58,1.46-.02.09-.06.15-.1.19-.07.07-.13.1-.2.12-.05.01-.14,0-.29-.04-.14-.04-.27-.03-.41,0-.03,0-.06.02-.08.04-.06.05-.13.1-.19.15-.02.02-.04.02-.07.02-.15-.02-.31-.04-.46-.05,0,0,0,0-.01,0-.07-.04-.13-.08-.2-.13-.08-.05-.19-.04-.28.02-.08.07-.16.13-.25.2-.03.02-.07.04-.11.04-.12,0-.24,0-.36,0,0,0-.02,0-.03,0-.14.09-.17.21-.08.35.04.06.06.1.07.13.05.1.02.13-.09.09-.07-.03-.15-.05-.22-.08-.03-.01-.05,0-.07.02-.02.02-.03.04-.03.05-.01.1-.12.18-.23.18-.14,0-.28,0-.41,0-.1,0-.19.06-.23.15-.02.04-.03.08-.05.12-.01.03-.04.05-.07.06-.26.06-.58.2-.71.45-.06.12-.2.19-.33.17-.29-.04-.75-.16-.71-.51.02-.13-.01-.21-.09-.26-.13-.08-.21-.15-.21-.32,0-.29.11-.54.32-.74.03-.03.04-.07.02-.1-.09-.16-.18-.32-.26-.48-.02-.03-.05-.06-.09-.06-.09-.01-.19-.03-.28-.04-.03,0-.05-.02-.07-.05-.07-.14-.1-.27-.1-.4,0-.15-.05-.17-.17-.06-.07.07-.18.12-.32.16-.03,0-.05.03-.05.06,0,.02,0,.04.01.06.09.29-.32.55-.56.64-.03.01-.06.03-.07.05-.13.16-.11.29-.38.37-.16.05-.42.08-.53.17-.14.12-.21.25-.2.37,0,.13-.04.15-.13.07-.1-.09-.2-.1-.35-.08-.26.05-.47,0-.62-.13,0,0,0,0-.01-.01,0,0-.02,0-.02-.01,0,0-.01,0-.02,0,0,0-.01,0-.02,0,0,0-.01,0-.02,0,0,0,0,0,0,0,0,0,0,0-.01,0,0,0-.02,0-.03,0,0,0-.01,0-.02,0-.01,0-.02,0-.03.01,0,0,0,0-.01,0,0,0-.01,0-.02.01,0,0,0,0-.01.01,0,0,0,0-.01.01,0,0,0,0-.01.01,0,0,0,0-.01.01-.11.14-.16.26-.16.38,0,.07.08.12.16.1.13-.03.26-.07.33-.03.06.04.08.11.05.21-.04.15-.14.27-.14.43-.01.28.11.45.35.49.17.03.28-.06.39-.1.07-.02.11-.02.12.01,0,.01,0,.02.01.03.01.04,0,.07-.04.09-.24.11-.42.09-.48.39-.03.14-.06.25-.1.33-.01.03-.04.04-.07.04-.05,0-.09-.02-.14-.05,0,0,0,0,0,0,0,0,0,0-.01,0,0,0,0,0-.01,0-.01,0-.02,0-.03,0,0,0,0,0-.01,0-.01,0-.03.02-.03.03-.22.3-.44.59-.65.89,0,0,0,0-.01.01,0,0,0,0,0,0-.03.02-.07.02-.09,0-.05-.05-.1-.1-.15-.15,0,0,0,0-.01,0,0,0,0,0,0,0,0,0,0,0,0,0,0,0,0,0,0,0,0,0-.01,0-.02,0,0,0-.01,0-.02,0,0,0,0,0-.01,0-.02,0-.03,0-.05.01,0,0-.01,0-.02,0,0,0,0,0-.01,0,0,0,0,0-.01,0,0,0,0,0,0,0,0,0,0,0-.01.01,0,0,0,0,0,0,0,0-.01.01-.01.02-.03.06-.06.13-.07.22,0,.01,0,.03-.01.04,0,0-.01.02-.02.02,0,0,0,0,0,0,0,0,0,0,0,0,0,0,0,0,0,0,0,0-.02.01-.03.02,0,0-.01,0-.02,0,0,0-.01,0-.02,0,0,0,0,0-.01,0-.01,0-.02,0-.04,0-.2-.07-.4-.14-.61-.21-.05-.02-.08-.05-.1-.1-.04-.14-.24-.62-.49-.52-.11.04-.17.19-.23.3-.02.04-.07.06-.11.04-.07-.02-.14-.05-.21-.07-.09-.03-.13,0-.11.09,0,.04.02.07.02.11.01.06-.03.13-.1.16-.34.13-.7.22-1.09.28-.08.01-.14.08-.15.16,0,.09,0,.19.03.29.05.25.2.29.47.13.03-.02.06-.02.09-.02.08,0,.11.08.08.24-.02.11-.07.14-.15.09-.03-.02-.07-.02-.13-.03-.05,0-.1.01-.15.04-.34.22-.28.55-.15.8.03.06.11.11.24.17.15.06.28.2.38.42.01.03.01.05,0,.08-.04.12-.05.23-.02.34.03.14.05.26.04.36-.01.39-.05,1.02-.1,1.87,0,0,0,.02,0,.02,0,0,0,0,0,0,0,0,0,0,0,0,0,0,0,.01,0,.02,0,0,0,.02-.01.02,0,0,0,0,0,0,0,0,0,0-.01.01,0,0,0,0-.02.01,0,0-.01,0-.02.01,0,0-.01,0-.02.01,0,0-.01,0-.02,0,0,0-.02,0-.03,0,0,0-.01,0-.01,0,0,0,0,0-.01,0-.08,0-.16-.01-.24-.02-.03,0-.06.01-.08.04-.05.07-.1.14-.15.21-.01.02-.04.03-.06.03-.06,0-.12.01-.18.02-.03,0-.06.01-.09.03-.18.11-.29.18-.31.19-.11.06-.2.13-.26.22-.16.22-.45.42-.55.68-.1.26-.14.49-.12.71.02.22.03.36.02.4-.03.16-.13.29-.28.4-.06.04-.09.11-.08.17.02.11.03.21.05.32,0,.03,0,.06-.02.09-.03.06-.07.11-.12.16,0,0,0,0-.01.01,0,0,0,0,0,.01,0,0,0,.01,0,.02,0,0,0,0,0,0,0,0,0,0,0,.01,0,0,0,.01,0,.02,0,0,0,0,0,.01,0,0,0,0,0,0,0,0,0,0,0,0,0,.02.02.03.04.04.11.04.21.08.27.19.06.11.11.18.16.2.21.1.39.25.55.44.02.02.02.05.02.08,0,.03-.03.11-.07.24-.02.08,0,.12.07.13.03,0,.06,0,.09-.03.03-.03.06-.06.09-.09.03-.02.05-.04.09-.04.12-.01.24-.03.36-.04.03,0,.06,0,.08.03.07.09.13.22.28.26.16.04.29-.03.38-.21.11-.22.27-.37.51-.45.04-.01.06,0,.06.03.05.18.08.46.11.84,0,.09.04.15.09.16.08.03.17,0,.25-.05.14-.11.25-.19.42-.23.41-.1.76-.18,1.03-.26.24-.07.25-.21.32-.41.01-.03.03-.05.06-.06.15-.06.22-.06.33-.19.26-.29.43-.48.49-.56.11-.14.21-.23.29-.27.27-.15.48-.2.85-.34.01,0,.02,0,.04,0,0,0,0,0,.01,0,0,0,0,0,0,0,0,0,0,0,0,0,0,0,0,0,0,0,.01,0,.02,0,.03,0,0,0,0,0,.01,0,0,0,.01,0,.02,0,0,0,0,0,.01,0,0,0,0,0,.01,0,0,0,0,0,.01,0,0,0,0,0,.01,0,0,0,.01.01.02.02,0,0,0,0,0,.01,0,0,0,0,0,.01,0,.01,0,.03,0,.05,0,0,0,.01,0,.02-.02.14-.03.28-.05.42,0,.05,0,.09.04.12.05.05.1.11.15.16.02.02.03.05.02.08-.04.12-.07.19-.03.3.12.35.36.54.74.58.13.01.16.06.24.12.06.05.15.06.23.03.38-.14.49-.26.84-.06.03.02.05.02.09.03.14,0,.28.04.43.09.12.04.29,0,.41.01.04,0,.08.01.11.04.12.11.28.23.48.15.03-.01.06-.03.08-.05.1-.12.19-.18.35-.14.14.03.31.08.53.14.03,0,.05.03.06.05.02.05.03.11.03.18,0,.03,0,.06.02.08.1.2.41.43.1.68,0,0,0,0,0,0,0,0,0,0,0,0,0,0,0,0,0,0,0,0,0,0,0,.01,0,0,0,0,0,0,0,0,0,0,0,0,0,.01,0,.02,0,.03,0,0,0,0,0,0,0,0,0,0,0,0,0,0,0,0,0,0,.07.06.12.11.16.15.14.16.05.45.21.59.09.08.18.11.27.08.4-.1.8-.18,1.2-.25,0,0,0,0,.01,0,.01,0,.02,0,.03.01,0,0,0,0,0,0,0,0,0,.02,0,.02-.04.16,0,.33.13.5.12.16.34.22.52.35.17.11.27.26.3.43.02.1-.01.28-.08.55-.09.35-.15.57-.16.68,0,.03,0,.06.02.08.03.03.07.06.13.09,0,0,0,0,.01,0,0,0,0,0,0,0,0,0,0,0,0,0,0,0,0,0,0,0,0,0,0,0,0,0,0,0,0,0,0,.01,0,0,0,0,0,0,0,0,0,0,0,.01,0,.02,0,.05-.02.06-.06.06-.11.13-.14.21,0,.03,0,.05.01.08.16.23.26.36.27.39.08.13.12.24.11.31-.03.25-.02.49.03.73,0,0,0,0,0,0,0,0,0,0,0,0,0,0,0,0,0,0,0,0,0,0,0,0,0,0,0,0,0,.01,0,0,0,0,0,0,0,0,0,0,.01.01,0,0,0,0,.01,0,0,0,0,0,0,0,0,0,0,0,.01,0,0,0,.02,0,.02,0,0,0,.01,0,.02,0,0,0,.01,0,.02,0,0,0,0,0,.01,0,.27-.09.56-.13.87-.13.1,0,.17-.04.25-.08.03-.02.06-.02.09,0,.08.03.21.05.38.06.07,0,.13.04.18.12.08.12.15.3.23.56.04.13.09.23.16.31.07.08.19.11.3.07.17-.05.55-.15.66.03.02.03.02.11,0,.22-.01.09,0,.17,0,.24.02.11.03.19.02.24-.01.1-.04.25-.09.45,0,.02,0,.04,0,.05,0,0,0,0,0,0,0,0,0,.01,0,.02,0,0,0,.01,0,.02,0,.01,0,.02.01.03,0,0,0,0,0,.01,0,0,0,0,.01.01,0,0,.01.01.02.02,0,0,0,0,0,0,0,0,0,0,.01,0,0,0,0,0,.01,0,0,0,.02,0,.03,0,.02,0,.03,0,.05,0,0,0,.01,0,.02,0,.08-.02.17-.03.25-.05.06-.01.12,0,.15.05.1.12.24.28.21.49-.03.17.03.46-.04.64-.12.3-.5.26-.68.5-.19.24-.51.42-.65.68-.09.16-.21.33-.37.51-.15.17-.28.45-.39.67-.08.16-.19.18-.27.28-.07.09-.1.17-.08.25,0,0,0,.01,0,.02,0,0,0,0,0,.01,0,0,0,0,0,0,0,.01.02.02.03.03,0,0,0,0,0,0,0,0,0,0,.01,0,0,0,0,0,.01,0,0,0,.02,0,.03,0,0,0,.01,0,.02,0,0,0,0,0,.01,0,0,0,.01,0,.02,0,0,0,.01,0,.02,0,0,0,.01,0,.02,0,0,0,0,0,0,0,0,0,.01,0,.02,0,0,0,.01,0,.02,0,0,0,.02,0,.02-.01,0,0,.01,0,.02-.01,0,0,0,0,0,0,0,0,0,0,.01,0,0,0,0,0,.01,0,0,0,.01-.01.02-.02.04-.04.09-.08.13-.13,0,0,0,0,0,0,0,0,0,0,0,0,0,0,0,0,.01,0,0,0,0,0,0,0,0,0,0,0,.01,0,.02-.01.05-.02.07-.03.01,0,.03,0,.04,0,0,0,.02,0,.02,0,0,0,.01,0,.02,0,0,0,.01,0,.02,0,0,0,.01,0,.02,0,0,0,0,0,0,0,0,0,.01,0,.02.01,0,0,.01,0,.02.01.1.09.2.17.32.23.08.04.13.17.19.23,0,0,.02.02.03.02,0,0,0,0,0,0,0,0,0,0,0,0,0,0,0,0,0,0,0,0,0,0,0,0,0,0,.01,0,.02,0,0,0,.01,0,.02,0,.01,0,.02,0,.04,0,0,0,0,0,0,0,.01,0,.02,0,.04,0,0,0,0,0,0,0,0,0,.01,0,.02,0,0,0,0,0,0,0,0,0,.01,0,.02-.01,0,0,0,0,0,0,0,0,.01,0,.02-.01,0,0,0,0,0,0,0,0,0,0,.01-.01,0,0,.01-.01.02-.02.03-.04.05-.08.08-.11.08-.12.13-.11.13.03.01.31.38.36.67.4.03,0,.06.02.08.04.16.15.35.27.57.34.03.01.05.03.07.06.09.19.24.31.43.35,0,0,0,0,.01,0,0,0,0,0,.01,0,0,0,0,0,0,0,0,0,0,0,0,0,0,0,0,0,.01,0,0,0,0,0,.01,0,0,0,0,0,0,.01,0,0,0,0,0,0,0,0,0,.01.01.02,0,0,0,.02,0,.03,0,0,0,0,0,0,0,0,0,0,0,0,0,0,0,0,0,.01,0,0,0,0,0,.01,0,0,0,.01,0,.02-.15.23-.34.4-.14.59.06.05.15.06.21,0,.12-.09.24-.18.35-.27.05-.04.08-.09.08-.15.01-.21.04-.37.07-.48.02-.06.03-.18.02-.34-.01-.24.06-.45.22-.63.09-.09.14-.16.17-.19.02-.02.03-.05.04-.08.02-.11.05-.24.09-.38.05-.16,0-.23-.09-.34,0,0,0,0,0-.01,0,0,0,0,0-.01,0,0,0,0,0,0,0,0,0,0,0-.01,0,0,0,0,0,0,0,0,0,0,0,0,0,0,0,0,0,0,0,0,0-.01.02-.01,0,0,0,0,0,0,0,0,0,0,0,0,0,0,0,0,0,0,0,0,0,0,0,0,.05,0,.09,0,.13.03.02.01.04.05.06.1.05.1.14.13.28.07,0,0,.02,0,.03,0,0,0,0,0,0,0,0,0,0,0,0,0,0,0,0,0,0,0,0,0,0,0,0,0,0,0,0,0,0,0,0,0,0,0,0,0,0,0,.02.02.02.03,0,0,0,.02,0,.03,0,0,0,0,0,.01,0,.02-.05.14-.12.35-.03.09-.12.15-.28.19-.03,0-.04.03-.04.05,0,.05.01.1.02.15,0,.04,0,.08-.05.11-.12.09-.24.18-.36.27-.06.04-.08.12-.05.18.02.04.04.06.05.07.06.03.11.03.14-.02.11-.17.21-.29.31-.36.16-.13.24-.27.39-.43.07-.08.13-.16.17-.24.06-.13.1-.22.1-.28.01-.25.09-.47.23-.66.05-.08.06-.15.06-.24,0-.03.01-.05.04-.07.16-.09.25-.25.38-.34.22-.16.38-.29.41-.54.03-.23.04-.49.04-.76,0-.1-.03-.24-.09-.42-.09-.3-.08-.59.06-.88.01-.02.01-.05,0-.07-.02-.03-.03-.06-.05-.09-.06-.1-.03-.13.08-.08.08.03.16.04.25.01.03,0,.05-.03.06-.06.07-.22.15-.37.24-.44.27-.2.49-.39.67-.57.18-.18.38-.27.56-.42.1-.08.22-.08.34-.06.11.01.17.01.21,0,.11-.04.18-.06.19-.09.11-.15.24-.28.39-.39,0,0,.02-.02.02-.03.02-.07.04-.15.06-.22.01-.04.04-.05.08-.05.11.01.22.02.33.03.03,0,.06,0,.09-.01.08-.03.15-.07.23-.1.03-.02.06-.01.09.01.2.18.42.16.66-.05.04-.03.08-.04.13-.03.09.02.19.05.3.09.21.06.35.01.42-.16.06-.15-.02-.25.17-.35.13-.07.27-.15.41-.23.06-.04.09-.13.07-.28,0-.03,0-.06.03-.08.05-.06.08-.13.1-.22.05-.29.34-.58.49-.85.14-.24.28-.45.44-.65.13-.16.19-.29.17-.38-.11-.47,0-.92.31-1.34.05-.07.08-.2.07-.29-.03-.4.07-.71.2-1.08.05-.13.06-.25.05-.37-.03-.26-.09-.46-.17-.61-.02-.03-.02-.06-.02-.09.01-.15.18-.54.12-.7-.03-.08-.09-.18-.16-.28-.02-.02-.03-.05-.02-.08.03-.21.09-.42.21-.65.01-.03.01-.05,0-.08-.02-.04-.04-.08-.06-.13-.01-.02,0-.05,0-.07,0-.01.02-.02.03-.02.03-.01.05,0,.07.02.04.05.07.09.11.14.02.02.04.04.07.04.14.03.24-.01.33-.13.07-.11.17-.21.28-.31.15-.14.29-.31.3-.45.04-.32.08-.5.11-.54.19-.23.31-.45.51-.64.22-.21.47-.46.74-.78.05-.06.11-.15.16-.26.05-.1.1-.19.16-.27.14-.17.22-.26.23-.28.16-.27.21-.58.29-.87.05-.18.07-.36.04-.56-.06-.47-.17-.92-.32-1.36ZM195.17,291.88c0-.07.03-.12.07-.12.04,0,.07.05.07.12,0,.07-.03.12-.07.12-.04,0-.07-.05-.07-.12Z"/>
          <path class="cls-14" d="M194.16,291.35s-.03-.04-.06-.03c0,0-.02,0-.02.02-.04.05-.07.08-.07.1,0,.18-.07.21-.21.07-.01-.01,0-.05.04-.12.08-.15.18-.27.31-.36.03-.02.07-.02.09.01,0,0,0,0,0,0,.02.03.03.06.05.09.01.02.04.04.07.03.07-.01.15-.03.22-.04.04,0,.06,0,.08.04.06.14,0,.23-.15.27-.13.03-.23.06-.31.09-.12.05-.14.02-.05-.07.02-.02.02-.06,0-.11Z"/>
          <path class="cls-2" d="M195.32,291.87c0,.07-.03.12-.07.12-.04,0-.07-.05-.07-.12,0-.07.03-.12.07-.12.04,0,.07.05.07.12Z"/>
        </g>
        <g>
          <path class="cls-7" d="M218.04,283.29c1.39.08,2.78.16,4.17.27.03,0,.06.03.06.06,0,.01,0,.03-.01.04-.92.88-1.83,1.77-2.75,2.66-.01.01-.02.04-.01.05.47,1.26.95,2.53,1.42,3.8.01.03,0,.06-.04.07-.01,0-.03,0-.04,0-1.28-.64-2.56-1.26-3.84-1.88-.02,0-.04,0-.06,0-1.1.71-2.19,1.43-3.29,2.15-.03.02-.06.01-.08-.01,0-.01-.01-.03-.01-.04.12-1.29.25-2.57.37-3.85,0-.02,0-.04-.03-.05-1.15-.8-2.31-1.6-3.46-2.38-.03-.02-.03-.05-.02-.08,0-.01.02-.02.04-.02,1.36-.22,2.71-.43,4.07-.63.02,0,.04-.02.04-.04.38-1.22.77-2.44,1.15-3.66,0-.03.04-.04.07-.03.02,0,.03.02.04.03.71,1.17,1.43,2.34,2.14,3.52.01.02.03.03.05.03Z"/>
          <path class="cls-7" d="M164.75,294.22c1.39-.47,2.78-.9,4.17-1.31.03,0,.06,0,.06.04,0,.01,0,.03-.01.04-.92,1.22-1.83,2.45-2.75,3.69-.01.02-.02.04-.01.06.48,1.08.95,2.17,1.43,3.26.01.03,0,.06-.04.08-.01,0-.03.01-.04.01-1.28-.16-2.56-.29-3.84-.4-.02,0-.04,0-.06.03-1.1,1.14-2.19,2.3-3.29,3.48-.03.03-.06.04-.08.02,0,0-.01-.02-.01-.04.12-1.34.25-2.67.37-4.01,0-.02,0-.04-.03-.04-1.15-.33-2.31-.64-3.46-.92-.03,0-.03-.04-.02-.07,0-.01.02-.03.04-.04,1.36-.81,2.71-1.58,4.07-2.33.02-.01.04-.03.04-.05.38-1.38.77-2.75,1.15-4.13,0-.03.04-.06.07-.06.02,0,.03,0,.04.01.71.88,1.43,1.77,2.14,2.67.01.01.03.02.05.01Z"/>
          <path class="cls-7" d="M168.81,322.24c1.4-.41,2.8-.79,4.2-1.15.03,0,.05,0,.05.03,0,.01,0,.02-.01.03-.92,1.19-1.84,2.39-2.76,3.6-.01.02-.02.03,0,.05.48,1.11.96,2.22,1.43,3.34,0,.02,0,.05-.03.07-.01,0-.02,0-.04,0-1.29-.21-2.58-.4-3.87-.56-.02,0-.04,0-.05.02-1.11,1.11-2.21,2.23-3.32,3.37-.02.02-.05.03-.07.01,0,0-.01-.02-.01-.03.12-1.34.25-2.68.37-4.02,0-.02,0-.03-.02-.04-1.16-.38-2.32-.74-3.48-1.08-.02,0-.03-.03-.01-.06,0-.01.02-.02.03-.03,1.37-.75,2.73-1.48,4.1-2.18.02,0,.03-.03.04-.04.39-1.37.77-2.74,1.16-4.11,0-.03.03-.05.06-.05.01,0,.02,0,.03.01.72.92,1.44,1.84,2.16,2.77,0,.01.03.02.04.01Z"/>
          <path class="cls-7" d="M222.11,312.85c1.4.1,2.8.21,4.2.34.03,0,.05.03.05.05,0,.01,0,.02-.01.03-.92.87-1.84,1.75-2.76,2.64-.01.01-.02.03,0,.05.48,1.28.95,2.56,1.43,3.84,0,.02,0,.05-.03.06-.01,0-.03,0-.04,0-1.29-.66-2.58-1.31-3.86-1.95-.02,0-.04,0-.05,0-1.1.69-2.21,1.39-3.31,2.1-.02.01-.05,0-.07-.01,0-.01-.01-.02-.01-.03.12-1.29.25-2.58.37-3.87,0-.02,0-.03-.02-.04-1.16-.83-2.32-1.65-3.48-2.47-.02-.02-.03-.05-.01-.07,0,0,.02-.01.03-.02,1.36-.2,2.73-.38,4.09-.55.02,0,.03-.01.04-.03.39-1.22.78-2.44,1.16-3.66,0-.02.03-.04.06-.03.01,0,.02.01.03.02.72,1.19,1.44,2.38,2.16,3.58,0,.02.03.03.04.03Z"/>
        </g>
      </g>
      <g>
        <path class="cls-2" d="M257.98,286.89c.42,3.12.85,6.24,1.27,9.37-10.88-.68-21.77-1.32-32.65-1.32-.42-3.1-.84-6.19-1.27-9.28,10.88-.05,21.76.56,32.65,1.23Z"/>
        <path class="cls-2" d="M260.52,305.54c.42,3.12.85,6.24,1.27,9.36-10.88-.68-21.77-1.37-32.65-1.46-.43-3.1-.86-6.2-1.29-9.29,10.89.05,21.78.71,32.67,1.4Z"/>
        <path class="cls-2" d="M263.06,324.26c.42,3.09.84,6.18,1.26,9.27-34.43-2.14-68.87-4.83-103.3,11.08-.41-2.82-.83-5.65-1.24-8.46,22.97-10.92,45.95-13.46,68.92-13.3.49,0,.97,0,1.46-.01.12,0,.22-.03.31-.08,0,0,0-.01.01-.02,0,0,.01-.01.02-.01,10.85.14,21.71.85,32.56,1.53Z"/>
        <path class="cls-2" d="M265.59,342.85c.42,3.12.85,6.24,1.27,9.36-34.43-2.1-68.87-5.23-103.3,9.79-.42-2.91-.85-5.82-1.27-8.72,34.43-15.46,68.87-12.55,103.3-10.43Z"/>
        <path class="cls-2" d="M268.13,361.49c.42,3.12.85,6.24,1.27,9.36-34.43-2.04-68.87-5.57-103.3,8.56-.42-2.92-.85-5.84-1.27-8.75,34.43-14.57,68.87-11.24,103.3-9.17Z"/>
        <path class="cls-2" d="M270.67,380.17c.42,3.12.85,6.24,1.27,9.36-34.43-1.96-68.87-5.88-103.3,7.4-.42-2.93-.85-5.86-1.27-8.79,34.43-13.7,68.87-9.98,103.3-7.97Z"/>
      </g>
      <path class="cls-1" d="M256.71,277.58c.42,3.11.84,6.21,1.27,9.32-10.88-.68-21.76-1.29-32.65-1.23-.02,0-.03-.02-.03-.03-.34-2.62-.7-5.24-1.08-7.86-.06-.45-.11-.9-.14-1.34,10.88-.11,21.75.48,32.63,1.15ZM226.6,294.94c.42,3.06.83,6.13,1.25,9.2,10.89.05,21.78.71,32.67,1.4-.42-3.09-.84-6.18-1.26-9.28-10.88-.68-21.77-1.32-32.65-1.32ZM229.14,313.43c.42,3.07.84,6.15,1.25,9.23,0,.03.02.05.04.08.01.01.03.02.04.03,0,0,0-.01.01-.02,0,0,.01-.01.02-.01,10.85.14,21.71.85,32.56,1.53-.42-3.12-.85-6.24-1.27-9.37-10.88-.68-21.77-1.37-32.65-1.46ZM161.02,344.62c.42,2.89.85,5.77,1.27,8.66,34.43-15.46,68.87-12.55,103.3-10.43-.42-3.11-.85-6.21-1.27-9.32-34.43-2.14-68.87-4.83-103.3,11.08ZM163.57,362c.42,2.88.84,5.77,1.26,8.65,34.43-14.57,68.87-11.24,103.3-9.17-.42-3.09-.84-6.18-1.26-9.27-34.43-2.1-68.87-5.23-103.3,9.79ZM166.1,379.41c.42,2.91.85,5.82,1.27,8.73,34.43-13.7,68.87-9.98,103.3-7.97-.42-3.11-.85-6.21-1.27-9.32-34.43-2.04-68.87-5.57-103.3,8.56ZM168.64,396.92c.42,2.89.84,5.78,1.25,8.67,34.43-12.86,68.87-8.76,103.3-6.85-.42-3.07-.84-6.14-1.25-9.22-34.43-1.96-68.87-5.88-103.3,7.4Z"/>
    </g>
    <g id="metade_brasil_gradiente">
      <path class="cls-12" d="M352.83,270.3c5.49,38,10.99,75.58,16.48,112.64-32.04,17.46-64.08,17.58-96.12,15.81-5.49-40.36-10.99-80.78-16.48-121.17,32.04,1.97,64.08,4.69,96.12-7.28Z"/>
      <path class="cls-16" d="M344.58,333.15c-24.35,23.22-48.7,38.73-73.05,53.3-4.38-32.17-8.76-64.37-13.13-96.57,28.73,17.75,57.46,35.88,86.19,43.27Z"/>
      <g>
        <g>
          <path class="cls-11" d="M298.74,339.38c2.4,17.47-10.78,31.96-29.44,30.73-2.9-21.29-5.79-42.59-8.69-63.89,18.66,1.36,35.73,15.82,38.13,33.16Z"/>
          <path class="cls-2" d="M299.02,343.72c-.02,1.78-.2,3.52-.53,5.2-10.09-7.59-21.88-13.88-34.47-17.66-.23-1.7-.46-3.41-.7-5.11,13.02,3.6,25.24,9.9,35.7,17.58Z"/>
          <g>
            <path class="cls-2" d="M277.99,359.22c.12.26.24.51.36.77.28.01.56.03.84.04-.21.15-.41.29-.62.44.12.26.24.51.36.77-.25-.17-.5-.33-.75-.5-.21.15-.41.29-.62.44.05-.25.11-.5.16-.75-.25-.17-.5-.33-.75-.5.28.01.56.03.84.04.05-.25.11-.5.16-.75Z"/>
            <path class="cls-2" d="M274.48,327.24c.12.26.24.51.36.77.28.01.56.03.84.04-.21.14-.41.29-.62.43.12.26.24.51.36.77-.25-.17-.5-.34-.75-.5-.21.14-.41.29-.62.43.05-.25.11-.5.16-.74-.25-.17-.5-.34-.75-.51.28.02.56.03.84.05.05-.25.11-.5.16-.74Z"/>
            <path class="cls-2" d="M267.59,352.73c.14.3.28.59.42.89-.29-.2-.57-.39-.86-.59-.05.04-.11.07-.16.11-.06-.45-.12-.91-.19-1.36.04-.17.07-.33.11-.5.14.3.28.59.42.89.32.02.65.04.97.06-.24.16-.47.33-.71.49Z"/>
            <path class="cls-2" d="M290.11,349.07c.14.29.28.58.42.87.32,0,.65.01.97.02-.24.17-.48.35-.71.52.14.29.28.58.42.87-.29-.18-.57-.37-.86-.55-.24.17-.48.35-.71.52.06-.29.12-.58.18-.86-.29-.18-.57-.37-.86-.55.32,0,.65.01.97.02.06-.29.12-.58.18-.86Z"/>
            <path class="cls-2" d="M269.96,345.44c.12.26.24.51.36.77.28.02.56.03.83.05-.2.14-.41.28-.61.42.12.25.24.51.36.76-.25-.17-.49-.34-.74-.5-.2.14-.41.28-.61.42.05-.24.1-.49.16-.73-.25-.17-.49-.34-.74-.5.28.02.56.03.83.05.05-.24.1-.49.16-.73Z"/>
            <path class="cls-2" d="M291.81,352.25c.12.25.24.5.36.75.28,0,.56,0,.83,0-.2.15-.41.3-.61.45.12.25.24.5.36.75-.25-.16-.49-.31-.74-.47-.2.15-.41.3-.61.45.05-.25.1-.49.16-.74-.25-.16-.49-.31-.74-.47.28,0,.56,0,.83.01.05-.25.1-.49.16-.74Z"/>
            <path class="cls-2" d="M290.21,354.83c.12.25.24.5.36.75.28,0,.56,0,.83.01-.2.15-.41.3-.61.45.12.25.24.5.36.75-.25-.16-.49-.31-.74-.47-.2.15-.41.3-.61.45.05-.25.1-.49.16-.74-.25-.16-.49-.32-.74-.48.28,0,.56.01.83.02.05-.25.1-.49.16-.74Z"/>
            <path class="cls-2" d="M266.26,343.46c.12.26.24.51.36.77-.25-.17-.49-.34-.74-.51-.05.04-.11.07-.16.11-.05-.37-.1-.74-.15-1.11.04-.17.07-.33.11-.5.12.26.24.51.36.77.28.02.56.03.83.05-.2.14-.41.28-.61.42Z"/>
            <path class="cls-2" d="M274.76,355.76c.09.2.19.4.28.6.22.01.43.02.65.03-.16.11-.32.22-.48.33.09.2.19.4.28.6-.19-.13-.38-.26-.58-.39-.16.11-.32.22-.48.33.04-.19.08-.38.12-.57-.19-.13-.38-.26-.58-.39.22.01.43.02.65.04.04-.19.08-.38.12-.57Z"/>
            <path class="cls-2" d="M284.59,358.62c.11.24.23.48.34.72.27,0,.53.02.8.03-.19.14-.39.28-.58.42.11.24.23.48.34.72-.23-.15-.47-.31-.7-.46-.19.14-.39.28-.58.42.05-.23.1-.47.15-.7-.23-.15-.47-.31-.7-.46.27,0,.53.02.8.03.05-.23.1-.47.15-.7Z"/>
            <path class="cls-2" d="M287.67,356.72c.08.16.15.32.23.48.18,0,.35,0,.53.01-.13.09-.26.19-.39.28.08.16.15.32.23.48-.16-.1-.31-.2-.47-.3-.13.09-.26.19-.39.28.03-.16.07-.31.1-.47-.16-.1-.31-.2-.47-.3.18,0,.35,0,.53.01.03-.16.07-.31.1-.47Z"/>
            <path class="cls-2" d="M294.83,350.11c.08.16.15.32.23.47.18,0,.35,0,.53,0-.13.1-.26.19-.39.29.08.16.15.32.23.47-.16-.1-.31-.2-.47-.29-.13.1-.26.19-.39.29.03-.16.07-.31.1-.47-.16-.1-.31-.2-.47-.29.18,0,.35,0,.53,0,.03-.16.07-.31.1-.47Z"/>
            <path class="cls-2" d="M273.96,336.57c.08.16.15.32.23.48.18,0,.35.02.53.03-.13.09-.26.18-.39.27.08.16.15.32.23.48-.16-.11-.31-.21-.47-.32-.13.09-.26.18-.39.27.03-.16.07-.31.1-.47-.16-.11-.31-.21-.47-.32.18,0,.35.02.53.03.03-.16.07-.31.1-.47Z"/>
            <path class="cls-2" d="M280.45,356.76c.09.2.19.4.28.6.22,0,.44.02.65.03-.16.11-.32.23-.48.34.09.2.19.4.28.6-.19-.13-.39-.26-.58-.39-.16.11-.32.23-.48.34.04-.19.08-.39.12-.58-.19-.13-.39-.26-.58-.39.22,0,.44.02.65.03.04-.19.08-.39.12-.58Z"/>
            <path class="cls-2" d="M284.01,355.79c.09.2.19.4.28.59.22,0,.44.02.65.02-.16.11-.32.23-.48.34.09.2.19.4.28.59-.19-.13-.39-.25-.58-.38-.16.11-.32.23-.48.34.04-.19.08-.39.12-.58-.19-.13-.39-.25-.58-.38.22,0,.44.02.65.02.04-.19.08-.39.12-.58Z"/>
            <path class="cls-2" d="M285.07,362.12c.09.2.19.4.28.59.22,0,.44.01.65.02-.16.12-.32.23-.48.35.09.2.19.39.28.59-.19-.13-.39-.25-.58-.38-.16.11-.32.23-.48.34.04-.19.08-.39.12-.58-.19-.13-.39-.25-.58-.38.22,0,.44.02.65.02.04-.19.08-.39.12-.58Z"/>
          </g>
        </g>
        <g>
          <path class="cls-12" d="M265.61,328.39c-.06-.16-.16-.29-.29-.41-.14-.12-.32-.21-.54-.27-.43-.13-.87-.25-1.3-.38.09.65.18,1.3.26,1.95.26.08.51.15.77.23.22.06.41.08.57.05.16-.03.29-.1.39-.21.1-.11.16-.26.18-.44.02-.18,0-.35-.05-.51ZM264.98,328.7c-.02.13-.07.22-.15.27-.09.05-.2.05-.34.01-.27-.08-.55-.16-.82-.24.04-.27.07-.54.11-.82.27.08.55.16.82.24.1.03.18.07.24.12.06.05.1.11.13.18.02.07.03.15.02.24Z"/>
          <path class="cls-12" d="M269.47,329.65c-.05-.15-.14-.29-.28-.41-.14-.12-.32-.22-.54-.3-.56-.19-1.11-.37-1.67-.56-.17.9-.35,1.81-.52,2.71.22.07.44.15.66.22.06-.33.13-.66.19-.99.28.1.56.19.85.28.12.39.23.78.35,1.17.24.08.49.16.73.25-.14-.43-.28-.86-.41-1.3.18-.01.33-.08.45-.18.11-.11.19-.25.22-.42.03-.17.02-.33-.03-.48ZM268.83,329.91c-.02.12-.08.21-.17.26-.09.05-.2.05-.33,0-.31-.1-.61-.21-.92-.31.05-.26.1-.52.15-.78.31.1.61.21.92.31.09.03.17.07.22.12.06.05.1.11.12.18.02.07.03.14,0,.22Z"/>
          <path class="cls-12" d="M273.84,331.46c-.07-.25-.21-.47-.41-.66-.2-.19-.47-.34-.79-.47-.32-.12-.61-.18-.86-.17-.26.01-.47.09-.65.25-.18.16-.3.39-.38.7-.08.31-.08.59-.01.84.07.25.21.47.41.66.21.19.47.35.79.47.32.12.61.18.87.17.26-.01.47-.1.65-.25.18-.16.3-.39.38-.7.08-.31.09-.59.01-.84ZM273.17,331.99s-.02.08-.03.12c-.04.13-.08.25-.15.34-.06.09-.14.16-.23.2-.09.04-.2.06-.31.06-.12,0-.25-.04-.39-.09-.14-.05-.26-.12-.36-.2-.1-.08-.18-.17-.23-.27-.05-.1-.09-.21-.1-.33,0-.12,0-.25.04-.38.01-.04.02-.08.03-.12.03-.14.08-.25.15-.34.06-.09.14-.16.23-.2.09-.04.2-.06.31-.06.12,0,.25.03.39.09.14.06.26.12.36.2.1.08.18.17.23.27.05.1.09.21.1.33.01.12,0,.25-.04.39Z"/>
          <path class="cls-12" d="M278.23,333.72c.05-.16.06-.32.03-.47-.04-.15-.11-.29-.21-.43-.11-.13-.24-.26-.4-.37-.16-.11-.33-.21-.53-.29-.32-.14-.62-.21-.88-.21-.26,0-.49.07-.67.21-.19.15-.33.37-.43.68-.15.46-.13.85.05,1.18.18.33.51.59.97.8.15.07.29.11.42.14.13.03.25.04.37.04.12,0,.23-.03.34-.06-.01.1-.02.2-.04.3.14.06.28.12.42.18.15-.47.31-.94.46-1.4-.51-.22-1.02-.44-1.53-.66-.05.14-.09.29-.14.43.3.13.59.26.89.38,0,0,0,.02,0,.03-.04.11-.1.19-.2.24-.09.05-.21.07-.34.06-.13-.01-.28-.05-.43-.12-.19-.08-.33-.18-.44-.29-.11-.11-.17-.25-.2-.39-.02-.15,0-.32.06-.51.01-.04.02-.08.04-.11.04-.14.1-.25.17-.34.07-.09.15-.15.25-.19.1-.04.21-.05.33-.03.12.01.26.05.41.12.1.04.19.09.27.15.08.06.15.12.21.19.06.07.09.14.11.22.02.08.02.16,0,.23.22.09.44.19.65.28Z"/>
          <path class="cls-12" d="M282.2,334.67c-.12-.13-.28-.25-.5-.36-.53-.26-1.07-.51-1.6-.77-.34.84-.67,1.69-1.01,2.53.21.1.42.2.63.31.12-.31.24-.61.37-.92.27.13.54.26.81.39.05.39.1.78.15,1.17.23.11.47.22.7.34-.06-.43-.13-.87-.19-1.3.19.01.35-.03.49-.11.14-.09.24-.21.3-.38.06-.16.08-.31.06-.46-.02-.15-.09-.3-.21-.43ZM281.7,335.26c-.05.12-.12.19-.22.22-.1.03-.21.02-.34-.04-.29-.14-.59-.28-.88-.42.1-.24.19-.48.29-.73.29.14.59.28.88.42.09.04.16.09.2.15.05.06.08.12.09.18.01.07,0,.14-.03.21Z"/>
          <path class="cls-12" d="M286.22,337.15c.07-.15.14-.29.21-.44-.76-.4-1.53-.8-2.29-1.2-.38.82-.77,1.64-1.15,2.46.77.41,1.54.81,2.31,1.22.07-.15.14-.3.21-.44-.56-.29-1.12-.59-1.69-.88.09-.2.19-.4.28-.6.49.26.98.51,1.47.77.07-.15.14-.29.2-.44-.49-.26-.98-.51-1.47-.77.09-.18.17-.37.26-.55.55.29,1.11.58,1.66.87Z"/>
          <path class="cls-12" d="M289.71,338.71c-.07-.12-.17-.23-.29-.33-.12-.1-.26-.2-.41-.29-.16-.09-.32-.16-.48-.22-.15-.05-.3-.08-.43-.08-.14,0-.26.02-.36.07-.1.05-.19.14-.25.26-.06.11-.09.22-.08.33,0,.11.04.21.09.31.05.1.12.19.21.29.08.09.17.19.27.27.1.09.19.17.28.25.09.08.17.16.24.24.07.08.11.15.14.21.03.07.02.13-.01.19-.02.04-.04.06-.07.08-.03.02-.07.03-.11.03-.04,0-.09,0-.15-.01-.06-.01-.12-.03-.18-.06-.07-.03-.14-.06-.22-.11-.12-.07-.22-.14-.3-.22-.08-.08-.13-.16-.15-.24-.02-.08,0-.16.03-.23,0,0,.01-.02.02-.03,0-.01.01-.02.02-.03-.2-.12-.4-.23-.6-.35,0,0-.01.01-.02.03,0,.01-.01.03-.02.04-.07.13-.1.27-.09.4.01.13.06.26.14.39.08.13.19.25.32.36.13.11.28.22.44.31.23.13.45.22.66.27.21.05.39.05.56,0,.16-.05.3-.17.39-.36.06-.11.08-.21.08-.32,0-.11-.04-.21-.09-.31-.05-.1-.12-.19-.21-.29-.08-.09-.17-.18-.27-.27-.1-.09-.19-.17-.28-.25-.09-.08-.17-.16-.24-.23-.07-.07-.12-.14-.15-.21-.03-.06-.03-.12,0-.18.03-.05.07-.08.13-.09.06-.01.14,0,.23.02.09.03.19.07.31.14.11.06.19.13.26.2.07.07.11.14.13.21.02.07.01.13-.02.2,0,0-.01.02-.02.03.2.11.4.22.59.34,0-.01.02-.03.02-.04.07-.12.09-.24.08-.37-.01-.12-.05-.24-.12-.36Z"/>
          <path class="cls-12" d="M293.32,340.87c-.07-.12-.16-.23-.28-.34-.12-.11-.25-.21-.4-.3-.16-.1-.32-.17-.47-.23-.15-.06-.3-.09-.43-.1-.14,0-.26.01-.37.06-.11.05-.2.13-.27.25-.07.11-.1.22-.1.32,0,.11.03.21.08.31.05.1.11.2.19.29.08.1.17.19.26.28.09.09.18.18.27.26.09.08.16.17.23.24.06.08.11.15.13.22.02.07.02.13-.02.19-.02.03-.05.06-.08.08-.03.02-.07.03-.11.03-.04,0-.09,0-.15-.02-.06-.01-.12-.04-.18-.06-.06-.03-.14-.07-.21-.11-.12-.07-.22-.15-.29-.23-.08-.08-.12-.16-.14-.24-.02-.08,0-.15.04-.23,0,0,.01-.02.02-.03,0-.01.01-.02.02-.02-.2-.12-.39-.24-.59-.36,0,0-.01.01-.02.03,0,.01-.01.02-.02.04-.08.13-.12.26-.11.39,0,.13.05.26.12.39.07.13.17.25.3.37.13.12.27.22.43.32.23.14.44.24.65.3.21.06.39.06.56.02.17-.05.31-.16.42-.34.06-.1.09-.21.09-.31,0-.1-.03-.21-.08-.31-.05-.1-.11-.2-.19-.29-.08-.1-.17-.19-.26-.28-.09-.09-.18-.18-.27-.26-.09-.08-.17-.16-.23-.24-.07-.08-.11-.15-.14-.21-.03-.06-.02-.12.01-.18.03-.05.07-.08.14-.09.06,0,.14,0,.23.03.09.03.19.08.3.15.1.06.19.13.25.2.06.07.1.14.12.21.02.07,0,.13-.03.2,0,0-.01.02-.02.03.19.12.39.24.58.35,0-.01.02-.03.03-.04.07-.12.11-.24.1-.36,0-.12-.04-.24-.11-.36Z"/>
          <path class="cls-12" d="M297.06,343.24c-.14-.22-.36-.42-.65-.61-.28-.19-.55-.3-.82-.36-.26-.05-.51-.03-.74.07-.23.1-.43.28-.62.55-.18.26-.28.51-.29.76-.01.25.05.48.2.7.15.22.36.43.64.61.29.19.56.31.82.36.26.05.51.02.74-.08.23-.1.43-.29.62-.55.18-.27.28-.52.29-.77.01-.25-.06-.48-.2-.7ZM296.57,343.91c-.03.11-.08.23-.16.34-.02.03-.05.07-.07.1-.08.11-.17.21-.26.27-.1.07-.2.11-.3.13-.11.02-.22.01-.34-.02-.12-.03-.24-.09-.37-.18-.12-.08-.22-.17-.3-.27-.07-.09-.12-.19-.14-.3-.02-.1-.02-.21.01-.32.03-.11.08-.22.16-.34.02-.03.05-.07.07-.1.08-.12.17-.21.26-.28.09-.07.2-.11.3-.13.11-.02.22-.01.34.02.12.03.24.09.36.17.13.08.23.17.3.27.07.09.12.19.15.3.02.1.02.21,0,.32Z"/>
        </g>
      </g>
      <path class="cls-10" d="M369.32,382.93c-32.04,17.46-64.08,17.58-96.12,15.81-5.49-40.36-10.99-80.78-16.48-121.17,32.04,1.97,64.08,4.69,96.12-7.28,5.49,38,10.99,75.58,16.48,112.64Z"/>
      <path class="cls-4" d="M369.32,382.93c-32.04,17.46-64.08,17.58-96.12,15.81-5.49-40.36-10.99-80.78-16.48-121.17,32.04,1.97,64.08,4.69,96.12-7.28,5.49,38,10.99,75.58,16.48,112.64Z"/>
    </g>
  </g>
</svg>