<svg xmlns="http://www.w3.org/2000/svg" version="1.1" xmlns:xlink="http://www.w3.org/1999/xlink" width="512" height="512" x="0" y="0" viewBox="0 0 24 24" style="enable-background:new 0 0 512 512" xml:space="preserve" class=""><g><path d="M12 0C5.383 0 0 5.383 0 12s5.383 12 12 12 12-5.383 12-12S18.617 0 12 0zm0 22C6.486 22 2 17.514 2 12S6.486 2 12 2s10 4.486 10 10-4.486 10-10 10zm1.5-15.5a1.5 1.5 0 1 1-3.001-.001A1.5 1.5 0 0 1 13.5 6.5zm0 11a1.5 1.5 0 1 1-3.001-.001 1.5 1.5 0 0 1 3.001.001zm0-5.5a1.5 1.5 0 1 1-3.001-.001A1.5 1.5 0 0 1 13.5 12z" fill="#ffffff" opacity="1" data-original="#000000" class=""></path></g></svg>